<?xml version="1.0" encoding="utf-8"?><svg viewBox="0 0 175 55" xmlns="http://www.w3.org/2000/svg" xmlns:xlink="http://www.w3.org/1999/xlink"><style>:root>svg{display:none}:root>svg:target{display:block}</style><svg viewBox="0 0 13 13" id="arrow-small-top" xmlns="http://www.w3.org/2000/svg"><path d="M12.572 12.119h-1.481l-.007-9.495-9.55 9.437-.986-.987 9.439-9.547L.49 1.521V.04h12.082v12.079z"/></svg><svg viewBox="0 0 17 17" id="burger-two-lines" xmlns="http://www.w3.org/2000/svg"><path d="M2.125 6.269V7.33h12.75V6.27H2.125zm0 4.25v1.062h12.75V10.52H2.125z"/></svg><svg viewBox="0 0 20 20" id="eye" xmlns="http://www.w3.org/2000/svg"><path d="M10 5C4.79 5 .781 9.59.781 9.59l-.37.41.37.41s3.655 4.168 8.516 4.55c.232.03.464.04.703.04.24 0 .471-.01.703-.04 4.861-.382 8.516-4.55 8.516-4.55l.37-.41-.37-.41S15.21 5 10 5zm0 1.25c1.377 0 2.646.376 3.75.879.398.66.625 1.418.625 2.246a4.372 4.372 0 01-3.887 4.355c-.012.003-.027-.002-.039 0-.149.008-.298.02-.449.02-.166 0-.327-.01-.488-.02a4.372 4.372 0 01-3.887-4.355c0-.815.22-1.575.605-2.227h-.02C7.325 6.636 8.609 6.25 10 6.25zm0 1.25a1.875 1.875 0 10.001 3.751A1.875 1.875 0 0010 7.5zm-5.469.586c-.097.42-.156.842-.156 1.289a5.58 5.58 0 00.86 2.988A14.5 14.5 0 012.206 10c.3-.308 1.138-1.123 2.324-1.914zm10.938 0A14.957 14.957 0 0117.793 10a14.501 14.501 0 01-3.027 2.363 5.58 5.58 0 00.703-4.277z" opacity=".7"/></svg><svg viewBox="0 0 7 14" id="fb" xmlns="http://www.w3.org/2000/svg"><path d="M1.752 13.3V7.388H.125V5.259h1.627V3.441C1.752 2.012 2.714.7 4.93.7c.897 0 1.56.083 1.56.083L6.436 2.77s-.676-.006-1.414-.006c-.799 0-.927.354-.927.94V5.26H6.5l-.105 2.129h-2.3V13.3H1.752z"/></svg><svg viewBox="0 0 14 14" id="inst" xmlns="http://www.w3.org/2000/svg"><path clip-rule="evenodd" d="M4.355.622C5.04.59 5.258.583 7.001.583c1.743 0 1.96.008 2.644.039.684.03 1.15.14 1.56.298.427.162.815.414 1.136.74.326.321.578.709.74 1.137.158.408.266.875.298 1.557.031.686.038.904.038 2.646 0 1.743-.007 1.961-.038 2.646-.031.682-.14 1.149-.299 1.557a3.15 3.15 0 01-.74 1.137c-.32.327-.708.579-1.136.74-.408.158-.875.267-1.557.298-.685.032-.903.039-2.646.039-1.743 0-1.962-.008-2.646-.039-.682-.03-1.149-.14-1.557-.298a3.15 3.15 0 01-1.137-.74 3.145 3.145 0 01-.74-1.136c-.159-.409-.267-.875-.299-1.558C.591 8.961.584 8.743.584 7c0-1.743.008-1.961.038-2.645.031-.683.14-1.15.299-1.558.161-.428.414-.816.74-1.137.32-.326.708-.579 1.136-.74.408-.158.875-.267 1.558-.298zm5.239 1.155c-.677-.03-.88-.037-2.593-.037-1.714 0-1.917.006-2.593.037-.626.029-.966.133-1.192.221-.3.117-.513.255-.738.48a1.99 1.99 0 00-.48.737c-.088.227-.192.566-.22 1.192-.031.677-.038.88-.038 2.593s.007 1.916.037 2.593c.03.626.133.966.222 1.192.102.278.266.53.48.738.206.213.459.377.737.48.226.087.566.192 1.192.22.676.031.879.038 2.593.038 1.713 0 1.916-.007 2.593-.038.626-.028.965-.133 1.191-.22.3-.117.514-.256.738-.48.213-.207.377-.46.48-.738.088-.226.192-.566.22-1.192.032-.677.038-.88.038-2.593s-.006-1.916-.037-2.593c-.029-.626-.133-.965-.221-1.192a1.992 1.992 0 00-.48-.737 1.99 1.99 0 00-.738-.48c-.226-.088-.566-.192-1.191-.221zM6.18 8.978a2.14 2.14 0 10.61-4.108 2.14 2.14 0 00-.61 4.108zm-1.513-4.31a3.298 3.298 0 114.665 4.664 3.298 3.298 0 01-4.665-4.664zm6.362-.475A.78.78 0 109.96 3.06a.78.78 0 001.07 1.134z"/></svg><svg viewBox="0 0 20 20" id="login" xmlns="http://www.w3.org/2000/svg"><path d="M10 1.875C5.52 1.875 1.875 5.52 1.875 10S5.52 18.125 10 18.125 18.125 14.48 18.125 10 14.48 1.875 10 1.875zm0 1.25A6.866 6.866 0 0116.875 10 6.866 6.866 0 0110 16.875 6.866 6.866 0 013.125 10 6.866 6.866 0 0110 3.125zM10 5a3.134 3.134 0 00-3.125 3.125c0 .947.442 1.79 1.113 2.363a4.378 4.378 0 00-2.363 3.887h1.25A3.115 3.115 0 0110 11.25a3.115 3.115 0 013.125 3.125h1.25a4.378 4.378 0 00-2.363-3.887c.671-.573 1.113-1.416 1.113-2.363A3.134 3.134 0 0010 5zm0 1.25c1.043 0 1.875.833 1.875 1.875A1.866 1.866 0 0110 10a1.866 1.866 0 01-1.875-1.875c0-1.042.833-1.875 1.875-1.875z"/></svg><svg viewBox="0 0 175 55" id="logo" xmlns="http://www.w3.org/2000/svg"><path d="M26.21.786c-.441 0-.736.343-.736.687l.074 14.213c0 1.168-1.545 1.785-2.428.962L12.6 6.69a.747.747 0 00-1.03 0 .7.7 0 00-.073.962l14.272 15.93c.073.068.147.068.294 0a5.888 5.888 0 012.796-1.168c.073 0 .147-.068.147-.137l-2.06-20.874c0-.343-.295-.618-.736-.618zM47.54 6.691a.747.747 0 00-1.03 0l-10.594 9.957c-.882.823-2.427.274-2.427-.962l.073-14.213c0-.412-.367-.687-.735-.687s-.736.275-.736.618l-2.06 20.874c0 .069.074.137.147.137 1.104.069 2.06.481 2.87 1.099.073.069.22.069.294 0L47.54 7.653c.294-.275.22-.687 0-.962zM57.62 23.994l-15.229.069c-1.25 0-1.912-1.442-1.03-2.266l10.741-9.82a.634.634 0 000-.96.83.83 0 00-1.03-.07L34.08 24.2c-.074.069-.074.137 0 .274.662.756 1.103 1.648 1.177 2.678 0 .069.073.138.22.138l22.217-1.854c.368 0 .662-.344.662-.687.074-.412-.294-.755-.736-.755zM52.097 44.595a.634.634 0 000-.962l-10.666-9.887c-.883-.824-.295-2.266 1.03-2.266l15.227.069c.442 0 .736-.344.736-.687 0-.343-.294-.687-.662-.687l-22.29-1.854c-.074 0-.22.069-.22.138A5.105 5.105 0 0134 31.137a.198.198 0 000 .274l16.994 13.252c.368.206.81.138 1.103-.068zM32.753 54.756c.441 0 .736-.343.736-.687l-.074-14.213c0-1.168 1.545-1.785 2.428-.962l10.52 9.957a.747.747 0 001.03 0 .7.7 0 00.073-.962L33.342 32.03c-.074-.07-.148-.07-.295 0-.809.548-1.765.96-2.869 1.029-.073 0-.147.069-.147.206l1.986 20.874c.074.343.368.618.736.618zM11.494 48.85a.747.747 0 001.03 0l10.52-9.956c.883-.824 2.427-.274 2.427.961l-.073 14.214c0 .412.368.686.736.686.367 0 .735-.274.735-.617l1.986-20.943c0-.069-.073-.206-.147-.206-1.03-.137-1.986-.55-2.795-1.099-.074-.068-.22-.068-.294 0l-14.125 16a.634.634 0 000 .96zM.605 30.86c0 .413.368.687.736.687l15.228-.069c1.25 0 1.913 1.442 1.03 2.266l-10.667 9.82a.634.634 0 000 .96.83.83 0 001.03.07l17.14-13.39c.074-.069.074-.137 0-.275-.588-.755-1.03-1.648-1.177-2.61 0-.068-.073-.136-.22-.136L1.268 30.105c-.368.069-.663.343-.663.755zM6.932 10.948a.634.634 0 000 .961l10.667 9.819c.883.824.294 2.266-1.03 2.266H1.341c-.441 0-.736.343-.736.687 0 .343.295.686.663.686l22.437 1.854c.073 0 .22-.069.22-.137a5.588 5.588 0 011.104-2.61.198.198 0 000-.274L7.962 10.948c-.294-.275-.736-.206-1.03 0zM72.134 14.968c1.545 0 2.722.274 3.531.824.81.55 1.25 1.373 1.25 2.472 0 .686-.146 1.236-.514 1.716a4.2 4.2 0 01-1.398 1.03l.662.824.662 1.03c.22.343.442.687.662 1.099.221.412.368.755.589 1.098h-2.575c-.22-.343-.368-.686-.588-.96-.221-.344-.368-.688-.589-.962-.22-.343-.441-.618-.588-.893-.221-.274-.368-.55-.589-.755h-1.177v3.64h-2.28v-9.889l1.544-.206c.515-.068 1.03-.068 1.398-.068zm.147 1.922H71.472v2.678h.662c.883 0 1.471-.137 1.84-.343.367-.206.588-.55.588-1.099 0-.48-.221-.824-.589-1.03-.368-.137-.956-.206-1.692-.206zM83.319 25.268c-.736 0-1.324-.069-1.84-.274a4.207 4.207 0 01-1.323-.825c-.368-.343-.589-.755-.736-1.235a5.489 5.489 0 01-.22-1.58v-6.11h2.28v5.973c0 .412.073.755.147 1.03.073.275.22.48.368.687.147.206.367.274.588.343.22.069.515.137.736.137.588 0 1.03-.137 1.398-.48.367-.344.514-.893.514-1.717v-5.974h2.281v6.111c0 .55-.073 1.099-.22 1.58-.148.48-.442.892-.736 1.235-.368.344-.81.619-1.325.825-.588.137-1.176.274-1.912.274zM93.031 23.345c.368 0 .662 0 .883-.068.22-.069.368-.138.515-.206.147-.069.22-.206.294-.344.074-.137.074-.274.074-.412 0-.343-.147-.617-.515-.824-.368-.206-.883-.412-1.692-.686-.368-.137-.736-.275-1.03-.412-.368-.137-.662-.344-.957-.55a1.892 1.892 0 01-.662-.823c-.147-.344-.294-.687-.294-1.168 0-.48.074-.892.294-1.236.221-.343.442-.686.81-.961.367-.275.735-.48 1.25-.618a6.122 6.122 0 011.619-.206c.735 0 1.324.069 1.912.206.515.137.957.275 1.325.48l-.736 1.786a4.452 4.452 0 00-1.03-.343c-.368-.138-.81-.138-1.324-.138-.589 0-1.03.069-1.25.206-.221.138-.369.344-.369.687 0 .206.074.343.148.48.073.138.22.207.367.344.147.069.368.206.589.275.22.068.441.137.736.274.588.206 1.03.344 1.47.55.442.205.736.411 1.03.617.295.275.516.55.59.893.146.343.22.756.22 1.236 0 .893-.368 1.648-1.03 2.129-.736.48-1.766.755-3.163.755-.515 0-.883 0-1.325-.069a25.453 25.453 0 01-1.03-.206c-.294-.068-.514-.137-.735-.274-.22-.069-.368-.138-.515-.275l.662-1.785c.294.137.736.274 1.177.412.442.206.957.274 1.692.274zM101.93 23.345c.367 0 .662 0 .882-.068.221-.069.368-.138.515-.206.147-.069.221-.206.295-.344.073-.137.073-.274.073-.412 0-.343-.147-.617-.515-.824-.368-.206-.883-.412-1.692-.686a15.106 15.106 0 01-1.03-.412c-.368-.137-.662-.344-.956-.55a1.894 1.894 0 01-.662-.823c-.147-.344-.294-.687-.294-1.168 0-.48.073-.892.294-1.236.22-.343.441-.686.809-.961a3.48 3.48 0 011.251-.618 6.122 6.122 0 011.618-.206c.736 0 1.324.069 1.913.206.515.137.956.275 1.324.48l-.736 1.786a4.448 4.448 0 00-1.03-.343c-.367-.138-.809-.138-1.324-.138-.588 0-1.03.069-1.25.206-.221.138-.368.344-.368.687 0 .206.073.343.147.48.073.138.221.207.368.344.147.069.368.206.588.275.221.068.442.137.736.274.588.206 1.03.344 1.471.55a6.29 6.29 0 011.03.617c.294.275.515.55.589.893.147.343.22.756.22 1.236 0 .893-.368 1.648-1.03 2.129-.735.48-1.765.755-3.163.755-.515 0-.883 0-1.324-.069a25.391 25.391 0 01-1.03-.206c-.294-.068-.515-.137-.736-.274-.22-.069-.367-.138-.515-.275l.663-1.785c.294.137.735.274 1.177.412.441.206 1.029.274 1.692.274zM108.332 15.243h2.648v9.82h-2.648v-9.82zM131.578 25.062a42.93 42.93 0 00-2.206-3.296c-.81-1.098-1.619-2.128-2.502-3.09v6.455h-2.28v-9.888h1.913c.294.343.662.687 1.103 1.167.368.481.809.962 1.251 1.442.441.481.809 1.03 1.25 1.58.442.549.809 1.098 1.177 1.579v-5.768h2.354v9.82h-2.06zM120.761 25.062c-.147-.343-.22-.687-.367-1.03-.148-.343-.295-.686-.368-1.098h-4.046c-.147.343-.295.686-.368 1.098-.147.343-.221.687-.368 1.03h-2.428c.368-1.03.736-2.06 1.104-2.952.368-.893.662-1.717 1.03-2.541.368-.824.662-1.58.956-2.266.294-.687.662-1.442 1.03-2.06h2.207c.368.687.662 1.373 1.03 2.06.294.687.662 1.442 1.03 2.266.368.824.662 1.648 1.03 2.54.368.893.735 1.854 1.103 2.953h-2.575zm-2.795-7.622l-1.471 3.708h2.942l-1.471-3.708zM129.223 54.656c-1.839 0-3.237-.412-4.193-1.373-.956-.892-1.471-2.129-1.471-3.776 0-.824.147-1.58.441-2.198.294-.618.662-1.167 1.177-1.648.515-.48 1.103-.755 1.839-1.03.736-.206 1.471-.343 2.281-.343.515 0 .882 0 1.324.069.368.068.735.137 1.03.206.294.068.515.137.735.274.221.138.368.138.442.206l-.736 1.786a12.479 12.479 0 00-1.251-.412c-.441-.138-.956-.138-1.544-.138-.368 0-.81.069-1.177.138-.368.137-.736.274-1.03.549-.295.275-.515.55-.662.961-.148.412-.295.893-.295 1.442 0 .48.074.893.147 1.305.148.412.295.755.589 1.03.221.274.589.48 1.03.687.441.137.883.274 1.471.274.368 0 .736 0 1.03-.069.294-.068.589-.068.809-.137a5.26 5.26 0 00.589-.206c.147-.069.368-.137.441-.206l.736 1.785c-.368.206-.883.344-1.545.481-.588.275-1.324.343-2.207.343zM107.079 44.357c1.545 0 2.722.275 3.531.824.81.55 1.251 1.374 1.251 2.472 0 .687-.147 1.236-.515 1.717a4.198 4.198 0 01-1.398 1.03l.662.824.663 1.03c.22.343.441.687.662 1.098.22.412.367.756.588 1.1h-2.575c-.22-.344-.367-.688-.588-.962-.221-.344-.368-.687-.589-.962-.22-.343-.441-.617-.588-.892-.221-.275-.368-.55-.589-.756h-1.177v3.64h-2.28v-9.888l1.545-.206c.515 0 1.029-.069 1.397-.069zm.147 1.923H106.417v2.678h.662c.883 0 1.472-.137 1.839-.343.368-.206.589-.55.589-1.099 0-.48-.221-.824-.589-1.03-.367-.069-.956-.206-1.692-.206zM159.677 44.356c1.545 0 2.722.275 3.531.824.809.55 1.251 1.374 1.251 2.472 0 .687-.147 1.236-.515 1.717a4.198 4.198 0 01-1.398 1.03l.662.824.662 1.03c.221.343.442.687.662 1.099.221.411.368.755.589 1.098h-2.575c-.221-.343-.368-.687-.589-.961-.22-.343-.367-.687-.588-.961-.221-.344-.441-.618-.589-.893-.22-.275-.367-.55-.588-.755h-1.177v3.639h-2.281V44.63l1.545-.206c.442 0 .957-.069 1.398-.069zm.147 1.923H159.015v2.678h.662c.883 0 1.471-.137 1.839-.343.368-.206.589-.55.589-1.099 0-.48-.221-.824-.589-1.03-.441-.069-.956-.206-1.692-.206zM117.749 54.657c-.736 0-1.325-.069-1.84-.275a4.205 4.205 0 01-1.324-.824c-.368-.343-.588-.755-.735-1.236a5.457 5.457 0 01-.221-1.58v-6.11h2.28v5.974c0 .412.074.755.148 1.03.073.274.22.48.367.686.147.206.368.275.589.343.221.07.515.138.736.138.588 0 1.029-.137 1.397-.48.368-.344.515-.893.515-1.717v-5.974h2.281v6.11c0 .55-.074 1.1-.221 1.58-.147.48-.441.893-.736 1.236a4.194 4.194 0 01-1.324.824c-.588.206-1.177.275-1.912.275zM88.543 52.802c.368 0 .662 0 .883-.068.22-.069.367-.138.514-.206.148-.069.221-.206.295-.343.073-.138.073-.275.073-.413 0-.343-.147-.617-.515-.823-.367-.206-.882-.413-1.692-.687-.367-.138-.735-.275-1.03-.412-.367-.138-.662-.343-.956-.55a1.893 1.893 0 01-.662-.823c-.147-.344-.294-.687-.294-1.168 0-.48.073-.892.294-1.236.22-.343.441-.686.81-.96.367-.276.735-.482 1.25-.619a6.122 6.122 0 011.618-.206c.736 0 1.325.069 1.913.206.515.137.956.275 1.324.48l-.736 1.786a4.453 4.453 0 00-1.03-.343c-.367-.138-.809-.138-1.324-.138-.588 0-1.03.069-1.25.206-.22.138-.368.344-.368.687 0 .206.074.343.147.48.074.138.22.207.368.344.147.069.368.206.588.275.221.068.442.137.736.274.589.206 1.03.344 1.471.55.442.206.736.412 1.03.617.295.275.515.55.589.893.147.344.22.756.22 1.236 0 .893-.367 1.648-1.03 2.129-.735.48-1.765.755-3.163.755-.515 0-.882 0-1.324-.069-.368-.068-.735-.137-1.03-.206-.294-.068-.515-.137-.735-.274-.221-.069-.368-.138-.515-.275l.662-1.785c.294.137.735.274 1.177.412.441.206 1.03.274 1.692.274zM169.98 52.802c.368 0 .662 0 .883-.068.221-.069.368-.138.515-.206.147-.069.221-.206.294-.343.074-.138.074-.275.074-.413 0-.343-.147-.617-.515-.823-.368-.206-.883-.413-1.692-.687-.368-.138-.736-.275-1.03-.412-.368-.138-.662-.343-.956-.55a1.887 1.887 0 01-.662-.823c-.148-.344-.295-.687-.295-1.168 0-.48.074-.892.295-1.236.22-.343.441-.686.809-.96.368-.276.735-.482 1.25-.619a6.124 6.124 0 011.619-.206c.736 0 1.324.069 1.913.206.515.137.956.275 1.324.48l-.736 1.786a4.448 4.448 0 00-1.03-.343c-.368-.138-.809-.138-1.324-.138-.589 0-1.03.069-1.251.206-.22.138-.367.344-.367.687 0 .206.073.343.147.48.073.138.22.207.368.344.147.069.367.206.588.275.221.068.441.137.736.274.588.206 1.03.344 1.471.55.441.206.736.412 1.03.617.294.275.515.55.588.893.148.344.221.756.221 1.236 0 .893-.368 1.648-1.03 2.129-.735.48-1.765.755-3.163.755-.515 0-.883 0-1.324-.069-.368-.068-.736-.137-1.03-.206-.294-.068-.515-.137-.736-.274-.221-.069-.368-.138-.515-.275l.662-1.785c.295.137.736.274 1.177.412.442.206 1.03.274 1.692.274zM81.407 54.452a42.89 42.89 0 00-2.207-3.296c-.81-1.099-1.619-2.129-2.502-3.09v6.454h-2.28v-9.887h1.913c.294.343.662.686 1.103 1.167.368.48.81.961 1.25 1.442.442.48.81 1.03 1.251 1.58.442.549.81 1.098 1.177 1.579v-5.768h2.355v9.819h-2.06zM102.811 44.633v1.854h-3.236v7.896h-2.428v-7.896H93.91v-1.854h8.901zM143.272 44.632v1.854h-3.236v7.896h-2.428v-7.896h-3.237v-1.854h8.901zM68.348 44.632h2.648v9.819h-2.648v-9.82zM155.339 49.576c0 .892-.147 1.648-.442 2.334-.294.687-.662 1.236-1.177 1.717a4.53 4.53 0 01-1.765 1.03 7.385 7.385 0 01-2.207.343 7.283 7.283 0 01-2.134-.343 4.53 4.53 0 01-1.765-1.03c-.515-.48-.883-1.03-1.177-1.717-.294-.686-.442-1.441-.442-2.334s.148-1.648.442-2.335c.294-.686.736-1.236 1.177-1.716a4.53 4.53 0 011.765-1.03 7.283 7.283 0 012.134-.344c.735 0 1.471.138 2.133.344.662.206 1.251.549 1.766 1.03.515.48.883 1.03 1.177 1.716.368.618.515 1.442.515 2.335zm-8.46 0c0 .48.073.961.22 1.373.148.412.295.755.589 1.03.221.275.589.55.883.687.368.137.809.206 1.25.206.442 0 .883-.069 1.251-.206.368-.138.662-.412.956-.687a3.56 3.56 0 00.589-1.03 4.16 4.16 0 00.221-1.373c0-.48-.074-.962-.221-1.373-.147-.412-.294-.756-.589-1.03a2.37 2.37 0 00-.956-.687 3.657 3.657 0 00-1.251-.206c-.441 0-.882.069-1.25.275-.368.137-.662.412-.883.686a3.58 3.58 0 00-.589 1.03c-.147.343-.22.755-.22 1.305zM77.285 39.757V29.94h6.989v1.853h-4.708v1.923h4.12V35.5h-4.12v2.335h5.002v1.854h-7.283v.068zM118.262 39.757V29.94h6.988v1.853h-4.708v1.923h4.12V35.5h-4.12v2.335h5.003v1.854h-7.283v.068zM142.977 39.757V29.94h7.356v1.853h-5.002v1.923h4.119V35.5h-4.119v4.189h-2.354v.068zM102.586 31.585c-1.104 0-1.913.275-2.428.893-.515.549-.736 1.373-.736 2.334 0 .48.074.893.148 1.305.147.412.294.755.515 1.03.22.275.514.48.882.686.368.138.81.206 1.251.206h.662c.221 0 .368 0 .515-.068v-3.433h2.354v4.875c-.294.137-.736.206-1.398.343-.662.137-1.397.206-2.354.206a6.544 6.544 0 01-2.133-.343 3.568 3.568 0 01-1.619-1.03 4.039 4.039 0 01-1.03-1.58 6.6 6.6 0 01-.367-2.197c0-.824.147-1.58.441-2.197a6.635 6.635 0 011.103-1.648c.442-.412 1.03-.755 1.693-1.03.662-.206 1.324-.343 2.059-.343.515 0 .957 0 1.324.068.368.07.736.138 1.03.206.295.07.515.138.736.275.221.069.294.137.368.206l-.662 1.785a8.901 8.901 0 00-1.104-.412 5.636 5.636 0 00-1.25-.137zM111.932 39.963c-.736 0-1.324-.068-1.839-.274a4.207 4.207 0 01-1.324-.824c-.368-.343-.589-.756-.736-1.236a5.492 5.492 0 01-.221-1.58v-6.11h2.281v5.973c0 .412.074.756.147 1.03.074.275.221.48.368.687.147.206.368.275.588.343.221.069.515.137.736.137.589 0 1.03-.137 1.398-.48.368-.343.515-.893.515-1.717V29.94h2.28v6.11c0 .55-.073 1.1-.22 1.58-.147.48-.442.893-.736 1.236a4.207 4.207 0 01-1.324.824c-.515.206-1.177.274-1.913.274zM93.691 39.757c-.147-.343-.22-.686-.368-1.03-.147-.343-.294-.686-.368-1.098H88.91c-.147.343-.294.687-.367 1.099-.148.343-.221.686-.368 1.03h-2.428c.368-1.03.736-2.06 1.104-2.953.367-.893.662-1.717 1.03-2.54.367-.825.662-1.58.956-2.267.294-.686.662-1.442 1.03-2.06h2.207c.368.687.662 1.374 1.03 2.06.294.687.662 1.442 1.03 2.266.367.824.662 1.648 1.03 2.54.367.893.735 1.855 1.103 2.953H93.69zm-2.795-7.621l-1.472 3.708h2.943l-1.471-3.708zM141.136 34.812c0 .893-.147 1.648-.442 2.335-.294.686-.662 1.236-1.177 1.716a4.53 4.53 0 01-1.765 1.03 7.385 7.385 0 01-2.207.344 7.277 7.277 0 01-2.134-.344 4.53 4.53 0 01-1.765-1.03c-.515-.48-.883-1.03-1.177-1.716-.295-.687-.442-1.442-.442-2.335 0-.892.147-1.648.442-2.334.294-.687.735-1.236 1.177-1.717a4.53 4.53 0 011.765-1.03 7.277 7.277 0 012.134-.343c.735 0 1.471.137 2.133.343.662.206 1.251.55 1.766 1.03.515.48.882 1.03 1.177 1.717.294.686.515 1.441.515 2.334zm-8.46 0c0 .48.073.962.22 1.373.148.412.295.756.589 1.03.221.275.588.55.883.687.368.137.809.206 1.25.206.442 0 .883-.069 1.251-.206.368-.137.662-.412.956-.687.221-.274.442-.618.589-1.03a4.16 4.16 0 00.22-1.373c0-.48-.073-.961-.22-1.373-.147-.412-.295-.755-.589-1.03a2.37 2.37 0 00-.956-.687 3.655 3.655 0 00-1.251-.206c-.441 0-.882.069-1.25.275-.368.137-.662.412-.883.687a3.582 3.582 0 00-.589 1.03c-.147.343-.22.823-.22 1.304zM75.959 37.835v1.922h-6.842V29.94h2.354v7.896h4.488zM76.106 10.3a42.899 42.899 0 00-2.207-3.296c-.81-1.1-1.618-2.129-2.501-3.09v6.385h-2.28V.48h1.912c.294.344.662.687 1.103 1.168.442.412.81.892 1.25 1.442.442.48.81 1.03 1.252 1.579.44.55.809 1.099 1.177 1.58V.48h2.354v9.82h-2.06zM87.433 10.3c-.147-.344-.22-.687-.368-1.03-.147-.344-.294-.687-.367-1.1h-4.046c-.148.344-.295.688-.368 1.1-.147.343-.221.686-.368 1.03h-2.428c.368-1.03.736-2.06 1.104-2.953.368-.893.662-1.717 1.03-2.54.368-.825.662-1.58.956-2.267.294-.686.662-1.442 1.03-2.06h2.207c.368.687.662 1.374 1.03 2.06.294.687.662 1.442 1.03 2.266.368.824.662 1.648 1.03 2.54.367.894.735 1.855 1.103 2.953h-2.575zm-2.795-7.554l-1.472 3.708h2.943l-1.471-3.708zM125.543 10.3a42.669 42.669 0 00-2.207-3.296c-.809-1.1-1.618-2.129-2.501-3.09v6.385h-2.28V.48h1.912c.295.344.662.687 1.104 1.168.368.48.809.961 1.25 1.442.442.48.81 1.03 1.251 1.579.441.55.809 1.099 1.177 1.58V.48h2.354v9.82h-2.06zM136.797 10.3c-.148-.344-.221-.687-.368-1.03-.147-.344-.295-.687-.368-1.1h-4.046c-.147.344-.294.688-.368 1.1-.147.343-.221.686-.368 1.03h-2.427c.367-1.03.735-2.06 1.103-2.953.368-.893.662-1.717 1.03-2.54.368-.825.662-1.58.956-2.267.295-.686.662-1.442 1.03-2.06h2.207c.368.687.662 1.374 1.03 2.06.294.687.662 1.442 1.03 2.266.368.824.662 1.648 1.03 2.54.368.894.735 1.855 1.103 2.953h-2.574zm-2.796-7.554l-1.471 3.708h2.942l-1.471-3.708zM98.616.48v1.854H95.38V10.3h-2.427V2.403h-3.237V.48h8.901zM100.676.481h2.648v9.82h-2.648V.48zM116.417 5.424c0 .893-.147 1.648-.442 2.335-.294.687-.662 1.236-1.177 1.717a4.53 4.53 0 01-1.765 1.03 7.385 7.385 0 01-2.207.343 7.27 7.27 0 01-2.133-.343 4.526 4.526 0 01-1.766-1.03c-.515-.481-.883-1.03-1.177-1.717-.294-.687-.441-1.442-.441-2.335 0-.892.147-1.647.441-2.334.294-.687.736-1.236 1.177-1.717a4.526 4.526 0 011.766-1.03A7.27 7.27 0 01110.826 0a7.27 7.27 0 012.133.343c.662.206 1.251.55 1.766 1.03.515.48.883 1.03 1.177 1.717.294.687.515 1.442.515 2.334zm-8.46 0c0 .481.073.962.221 1.374.147.412.294.755.588 1.03.221.274.589.549.883.686.368.138.809.206 1.251.206.441 0 .882-.068 1.25-.206.368-.137.662-.412.956-.686.221-.275.442-.618.589-1.03a4.16 4.16 0 00.221-1.374c0-.48-.074-.96-.221-1.373-.147-.412-.294-.755-.589-1.03a2.37 2.37 0 00-.956-.686 3.655 3.655 0 00-1.25-.206c-.442 0-.883.068-1.251.274-.368.138-.662.412-.883.687a3.558 3.558 0 00-.588 1.03c-.148.343-.221.755-.221 1.304zM147.466 8.377v1.922h-6.841V.48h2.281v7.897h4.56z"/></svg><svg viewBox="0 0 20 20" id="poorVision" xmlns="http://www.w3.org/2000/svg"><path d="M10 5C4.79 5 .781 9.59.781 9.59l-.37.41.37.41s3.655 4.168 8.516 4.55c.232.03.464.04.703.04.24 0 .471-.01.703-.04 4.861-.382 8.516-4.55 8.516-4.55l.37-.41-.37-.41S15.21 5 10 5zm0 1.25c1.377 0 2.646.376 3.75.879.398.66.625 1.418.625 2.246a4.372 4.372 0 01-3.887 4.355c-.012.003-.027-.002-.039 0-.149.008-.298.02-.449.02-.166 0-.327-.01-.488-.02a4.372 4.372 0 01-3.887-4.355c0-.815.22-1.575.605-2.227h-.02C7.325 6.636 8.609 6.25 10 6.25zm0 1.25a1.875 1.875 0 10.001 3.751A1.875 1.875 0 0010 7.5zm-5.469.586c-.097.42-.156.842-.156 1.289a5.58 5.58 0 00.86 2.988A14.5 14.5 0 012.206 10c.3-.308 1.138-1.123 2.324-1.914zm10.938 0A14.957 14.957 0 0117.793 10a14.501 14.501 0 01-3.027 2.363 5.58 5.58 0 00.703-4.277z" opacity=".7"/></svg><svg viewBox="0 0 25 25" id="search" xmlns="http://www.w3.org/2000/svg"><path d="M22.833 21.137l.177.177-.177.176-1.123 1.123-.177.177-.177-.177-6.067-6.067a8.001 8.001 0 01-4.913 1.673c-4.444 0-8.063-3.619-8.063-8.063 0-4.444 3.619-8.062 8.063-8.062 4.444 0 8.063 3.618 8.063 8.062a8 8 0 01-1.674 4.913l6.068 6.068zM10.376 4.157c-3.323 0-6 2.677-6 6 0 3.322 2.677 6 6 6s6-2.678 6-6c0-3.323-2.677-6-6-6z"/></svg><svg viewBox="0 0 18 18" id="tel" xmlns="http://www.w3.org/2000/svg"><path clip-rule="evenodd" d="M6.615 2.702a2.25 2.25 0 00-3.181 0l-.49.49c-.74.74-1.037 1.798-.843 2.821.402 2.128 1.624 4.406 3.552 6.334s4.206 3.15 6.333 3.552c1.024.193 2.08-.103 2.822-.844l.489-.488a2.25 2.25 0 000-3.182l-.88-.88a1.875 1.875 0 00-2.652 0l-.59.59a8.785 8.785 0 01-2.503-1.767 8.765 8.765 0 01-1.766-2.504l.526-.526c.769-.769.823-1.956.064-2.715l-.88-.88zm-2.12 1.06a.75.75 0 011.06 0l.88.881c.072.072.105.16.102.253a.508.508 0 01-.166.341l-.614.613a1.312 1.312 0 00-.28 1.454 10.227 10.227 0 002.134 3.084c.942.942 2 1.658 3.084 2.136a1.312 1.312 0 001.454-.28l.678-.679a.374.374 0 01.53 0l.879.88a.75.75 0 010 1.06l-.488.49c-.37.37-.917.537-1.483.43-1.792-.339-3.806-1.394-5.551-3.14-1.746-1.744-2.8-3.759-3.14-5.55-.106-.567.061-1.113.431-1.483l.49-.49z" opacity=".5"/></svg><svg viewBox="0 0 15 14" id="tw" xmlns="http://www.w3.org/2000/svg"><path d="M14.777 2.88a6.158 6.158 0 01-1.672.428 2.766 2.766 0 001.28-1.504 6.07 6.07 0 01-1.848.66 2.982 2.982 0 00-1.653-.825 3.094 3.094 0 00-1.848.286 2.804 2.804 0 00-1.28 1.277 2.552 2.552 0 00-.18 1.74 8.735 8.735 0 01-3.325-.824 8.189 8.189 0 01-2.677-2.015c-.25.402-.394.87-.394 1.366 0 .447.118.888.344 1.283.226.394.553.73.951.98a3.064 3.064 0 01-1.318-.34v.034c0 .628.232 1.236.658 1.722a2.955 2.955 0 001.677.943 3.136 3.136 0 01-1.315.046c.186.54.548 1.013 1.036 1.35a3.05 3.05 0 001.684.537 6.114 6.114 0 01-3.616 1.164 6.35 6.35 0 01-.695-.038 8.667 8.667 0 004.462 1.22c5.357 0 8.285-4.14 8.285-7.73 0-.117-.003-.235-.009-.352a5.716 5.716 0 001.452-1.406l.001-.002z"/></svg><svg viewBox="0 0 18 18" id="whatsapp" xmlns="http://www.w3.org/2000/svg"><g opacity=".5"><path clip-rule="evenodd" d="M9 16.875a7.875 7.875 0 10-6.852-3.991l-1.023 3.991 4.115-.954a7.84 7.84 0 003.76.954zm0-1.211a6.664 6.664 0 10-5.46-2.845l-.598 2.239 2.278-.57A6.633 6.633 0 009 15.664z"/><path d="M7.031 5.344C6.844 4.968 6.557 5 6.267 5c-.519 0-1.328.621-1.328 1.777 0 .948.418 1.985 1.825 3.536 1.357 1.497 3.141 2.272 4.622 2.246 1.481-.027 1.786-1.301 1.786-1.732 0-.19-.119-.285-.2-.311-.505-.243-1.435-.694-1.647-.779-.212-.084-.323.03-.391.093-.192.183-.573.722-.704.843-.13.122-.324.06-.405.014-.298-.119-1.105-.478-1.748-1.101-.795-.772-.842-1.037-.992-1.273-.12-.189-.032-.305.012-.355.172-.198.408-.504.514-.655.106-.152.022-.382-.028-.526-.218-.617-.402-1.133-.552-1.434z"/></g></svg></svg>