<?xml version="1.0" encoding="utf-8"?><svg viewBox="0 0 348 256" xmlns="http://www.w3.org/2000/svg" xmlns:xlink="http://www.w3.org/1999/xlink"><style>:root>svg{display:none}:root>svg:target{display:block}</style><svg viewBox="0 0 111 115" id="arrow-big" xmlns="http://www.w3.org/2000/svg"><path d="M110.594 4.549H97.218l-.054 85.712-86.19-85.19-8.905 8.905 85.19 86.19-85.712.054v13.376h109.047V4.549z"/></svg><svg viewBox="0 0 13 13" id="arrow-small-top" xmlns="http://www.w3.org/2000/svg"><path d="M12.572 12.119h-1.481l-.007-9.495-9.55 9.437-.986-.987 9.439-9.547L.49 1.521V.04h12.082v12.079z"/></svg><svg viewBox="0 0 234 143" id="arrows-reccomend" xmlns="http://www.w3.org/2000/svg"><mask id="ca" style="mask-type:alpha" maskUnits="userSpaceOnUse" x="0" y="0" width="235" height="143"><path d="M.129.136h234.436v142.606H.129z"/></mask><g mask="url(#ca)"><path d="M191.539 447.525c-1.706 1.282-2.986 2.991-3.84 5.127-.853 3.846.427 7.691 3.414 9.4l49.921 35.461c4.266 2.991 9.813 1.709 12.373-2.136 1.28-1.709 2.134-3.418 2.134-5.127 0-2.991-1.707-5.554-3.84-7.263l-23.041-16.235c-7.68-5.555-7.68-17.09 0-22.644l23.041-16.663c4.266-2.991 5.12-8.545 2.133-12.39-2.987-4.273-8.534-5.127-12.374-2.137l-49.921 34.607zM191.54 202.713c-1.707 1.282-2.987 2.991-3.84 5.127-.854 3.845.426 7.69 3.413 9.399l49.921 35.462c4.267 2.991 9.813 1.709 12.374-2.136 1.28-1.709 2.133-3.418 2.133-5.555 0-2.99-1.28-5.554-3.84-7.263l-23.041-16.235c-7.68-5.554-7.68-17.09 0-22.644l23.467-16.236c4.267-2.99 5.121-8.545 2.134-12.39-2.987-4.272-8.534-5.127-12.374-2.136l-50.347 34.607zM190.26 4.897c-1.28 1.71-1.706 3.418-1.706 5.127 0 2.991 1.28 5.555 3.84 7.264l44.374 31.189c.427 0 .427.427.853.427l3.84 2.563c4.267 2.991 9.814 1.71 12.374-2.136 1.28-1.709 1.707-3.418 1.707-5.127 0-2.99-1.28-5.554-3.84-7.263L207.327 5.75c-.426 0-.426-.426-.853-.426l-3.413-2.564c-4.267-2.99-9.814-2.136-12.801 2.136zM126.685 340.286c1.707-1.281 2.987-2.99 3.84-5.127.854-3.845-.426-7.69-3.413-9.399L14.896 247.147c-4.266-2.991-9.813-1.709-12.373 2.136-1.28 1.709-1.707 3.418-1.707 5.127 0 2.99 1.28 5.554 3.84 7.263l85.762 59.815c7.68 5.554 7.68 17.089 0 22.644L4.656 403.946c-4.267 2.991-5.12 8.545-2.133 12.39 2.987 4.273 8.533 5.127 12.373 2.137l111.789-78.187z"/><path d="M64.39 340.286c1.707-1.281 2.987-2.99 3.84-5.127.854-3.845-.426-7.69-3.413-9.399l-49.921-35.034c-4.267-2.991-9.814-1.709-12.374 2.136-1.28 1.709-1.706 3.418-1.706 5.127 0 2.991 1.28 5.554 3.84 7.263l23.04 16.236c7.68 5.554 7.68 17.089 0 22.644L4.23 360.367c-4.267 2.991-5.12 8.545-2.133 12.39 2.986 4.273 8.533 5.127 12.373 2.136l49.921-34.607z"/><path d="M64.39 4.043c-1.28 1.709-1.707 3.418-1.707 5.127 0 2.99 1.28 5.554 3.84 7.263l85.762 59.815c7.68 5.554 7.68 17.09 0 22.644l-85.762 59.814-62.295 43.58c-1.706 1.281-2.986 2.99-3.84 5.127-.853 3.845.427 7.69 3.414 9.399l112.642 79.468 35.841 25.208c7.68 5.554 7.68 17.09 0 22.644l-85.762 59.814-62.295 43.58c-1.706 1.281-2.986 2.99-3.84 5.127-.853 3.845.427 7.69 3.414 9.399l112.642 79.041c4.267 2.991 9.813 1.709 12.374-2.136 1.28-1.709 1.706-3.418 1.706-5.127 0-2.991-1.28-5.555-3.84-7.264l-85.761-59.814c-7.68-5.554-7.68-17.09 0-22.644l85.761-59.815 62.295-44.006c1.706-1.282 2.986-2.991 3.84-5.127.853-3.846-.427-7.691-3.414-9.4L77.19 247.147l-35.84-25.208c-7.68-5.554-7.68-17.09 0-22.644l85.761-59.815 62.294-43.579c1.707-1.282 2.987-2.99 3.84-5.127.854-3.845-.426-7.69-3.413-9.4L77.617 2.762c-4.694-3.845-10.24-2.99-13.227 1.282z"/><path d="M126.685 4.043c-1.28 1.709-1.707 3.418-1.707 5.127 0 2.99 1.28 5.554 3.84 7.263l85.762 59.815c7.68 5.554 7.68 17.09 0 22.644l-85.762 59.814-62.295 43.58c-1.706 1.281-2.986 2.99-3.84 5.127-.853 3.845.427 7.69 3.414 9.399l112.642 79.468 35.841 25.208c7.68 5.554 7.68 17.09 0 22.644l-85.762 59.814-62.295 43.58c-1.706 1.281-2.986 2.99-3.84 5.127-.853 3.845.427 7.69 3.414 9.399l112.642 79.041c4.267 2.991 9.813 1.709 12.373-2.136 1.28-1.709 1.707-3.418 1.707-5.127 0-2.991-1.28-5.555-3.84-7.264l-85.762-59.814c-7.68-5.554-7.68-17.09 0-22.644l85.762-59.815 62.721-44.006c1.707-1.282 2.987-2.991 3.84-5.127.854-3.846-.426-7.691-3.413-9.4l-112.216-78.613-35.84-25.208c-7.68-5.554-7.68-17.09 0-22.644l85.761-59.815L251.7 95.047c1.707-1.282 2.987-2.991 3.84-5.127.854-3.846-.426-7.69-3.413-9.4L139.911 1.907c-4.693-2.991-10.24-2.137-13.226 2.136z"/><path d="M128.818 447.526c-1.706 1.281-2.986 2.99-3.84 5.127-.853 3.845.427 7.69 3.414 9.399l112.642 79.041c4.266 2.991 9.813 1.709 12.373-2.136 1.28-1.709 2.134-3.418 2.134-5.127 0-2.991-1.28-5.555-3.84-7.264l-85.762-59.814c-7.68-5.554-7.68-17.09 0-22.644l85.762-59.815c4.266-2.991 5.12-8.545 2.133-12.39-2.987-4.273-8.534-5.127-12.374-2.136l-112.642 77.759zM126.685 95.046c1.707-1.281 2.987-2.99 3.84-5.126.854-3.846-.426-7.69-3.413-9.4L14.896 1.907C10.63-1.084 5.083.197 2.523 4.043 1.243 5.752.816 7.46.816 9.17c0 2.99 1.28 5.554 3.84 7.263l85.762 59.815c7.68 5.554 7.68 17.09 0 22.644L4.656 158.706c-4.267 2.991-5.12 8.545-2.133 12.391 2.987 4.272 8.533 5.127 12.373 2.136l111.789-78.187z"/><path d="M64.39 95.047c1.707-1.282 2.987-2.991 3.84-5.127.854-3.846-.426-7.69-3.413-9.4L14.896 45.486c-4.267-2.99-9.814-1.71-12.374 2.136C1.242 49.332.816 51.04.816 52.75c0 2.99 1.28 5.554 3.84 7.263l23.04 16.236c7.68 5.554 7.68 17.09 0 22.644L4.23 115.127c-4.267 2.991-5.12 8.545-2.133 12.39 2.986 4.273 8.533 5.127 12.373 2.137L64.39 95.047zM128.818 202.713c-1.706 1.282-2.986 2.991-3.84 5.127-.853 3.845.427 7.69 3.414 9.399l112.642 79.041c4.266 2.991 9.813 1.709 12.373-2.136 1.28-1.709 2.134-3.418 2.134-5.127 0-2.991-1.28-5.554-3.84-7.263l-85.762-59.815c-7.68-5.554-7.68-17.09 0-22.644l85.762-59.815c4.266-2.99 5.12-8.545 2.133-12.39-2.987-4.272-8.534-5.127-12.374-2.136l-112.642 77.759zM65.244 538.956c1.28-1.709 1.707-3.418 1.707-5.126 0-2.991-1.28-5.555-3.84-7.264l-44.375-31.189c-.426 0-.426-.427-.853-.427l-3.413-2.563c-4.267-2.991-9.814-1.709-12.374 2.136-1.28 1.709-1.707 3.418-1.707 5.127 0 2.99 1.28 5.554 3.84 7.263l44.374 31.189c0 .427.427.427.427.427l3.414 2.564c4.266 2.99 9.813 2.136 12.8-2.137z"/></g></svg><svg viewBox="0 0 156 162" id="banner-icon" xmlns="http://www.w3.org/2000/svg"><path d="M155.84 155.592h-18.847l-.077-120.743L15.467 154.857 2.92 142.312 122.959 20.897 2.183 20.82V1.978H155.84v153.614z"/></svg><svg viewBox="0 0 17 17" id="burger-two-lines" xmlns="http://www.w3.org/2000/svg"><path d="M2.125 6.269V7.33h12.75V6.27H2.125zm0 4.25v1.062h12.75V10.52H2.125z"/></svg><svg viewBox="0 0 38 38" id="card-arrow-top" xmlns="http://www.w3.org/2000/svg"><path d="M37.2 36.497h-4.5l-.018-28.323L3.69 36.324.695 33.382 29.35 4.902.52 4.882V.463H37.2v36.034z"/><defs><linearGradient id="fpaint0_linear" x1="35.229" y1="-1.472" x2=".845" y2="33.529" gradientUnits="userSpaceOnUse"><stop stop-color="#DE525C"/><stop offset="1" stop-color="#E97251"/></linearGradient></defs></svg><svg viewBox="0 0 38 38" id="cart-arrow-top" xmlns="http://www.w3.org/2000/svg"><path d="M37.2 36.497h-4.5l-.018-28.323L3.69 36.324.695 33.382 29.35 4.902.52 4.882V.463H37.2v36.034z"/><defs><linearGradient id="gpaint0_linear" x1="35.229" y1="-1.472" x2=".845" y2="33.529" gradientUnits="userSpaceOnUse"><stop stop-color="#DE525C"/><stop offset="1" stop-color="#E97251"/></linearGradient></defs></svg><svg viewBox="0 0 120 120" id="cart-board" xmlns="http://www.w3.org/2000/svg"><path d="M105.211 16.698l-1.882-1.88C100.211 11.7 96.164 10 91.912 10c-.258 0-.516 0-.722.026-.85.051-1.675.154-2.5.335-3.505.747-6.727 2.704-9.098 5.538l-1.418 1.7-9.51 11.412-2.32 2.782-6.186 7.419a146.292 146.292 0 01-4.381 4.946c-.748.798-1.52 1.623-2.32 2.473-4.717 4.92-10.129 10.097-14.227 13.524l-4.072 3.374-19.28 16.048c-3.015 2.525-4.973 5.822-5.643 9.532a14.356 14.356 0 00-.232 2.086v.412c-.078 4.354 1.623 8.501 4.82 11.695l1.88 1.881C19.824 108.3 23.87 110 28.097 110c4.716 0 9.201-2.138 12.345-5.899l13.016-15.61 2.32-2.783.721-.875 3.377-4.07c.335-.413.721-.85 1.082-1.288.645-.722 1.315-1.495 2.036-2.293 1.057-1.16 2.165-2.37 3.325-3.58.748-.8 1.547-1.598 2.32-2.396a208.674 208.674 0 018.17-7.883c.748-.696 1.547-1.391 2.294-2.06.541-.464 1.108-.954 1.675-1.443l21.625-18.007 1.701-1.416c3.582-2.988 5.67-7.11 5.876-11.618.232-4.482-1.469-8.784-4.768-12.081zm-51.78 68.186l-14.794 17.749c-2.68 3.22-6.52 5.049-10.541 5.049-3.634 0-7.088-1.469-9.768-4.148l-1.882-1.88c-2.732-2.73-4.201-6.286-4.124-10.02v-.336c.026-.592.078-1.185.206-1.777.567-3.169 2.243-6.002 4.846-8.166l19.433-16.177 3.892-3.246c3.686-3.065 8.402-7.522 12.758-11.953v34.905h-.026zm54.254-56.182c-.18 3.838-1.959 7.367-5.051 9.943l-1.882 1.571-21.444 17.852c-.593.49-1.16.979-1.727 1.468-.773.67-1.572 1.391-2.345 2.087-2.14 1.932-4.382 4.096-6.624 6.311V32.617l11.16-13.395 1.547-1.855c2.036-2.447 4.793-4.121 7.81-4.765.695-.155 1.417-.232 2.138-.284.18 0 .387-.025.619 0 3.634 0 7.088 1.469 9.768 4.148l1.882 1.88c2.86 2.834 4.33 6.517 4.149 10.356z"/></svg><svg viewBox="0 0 120 120" id="cart-skis" xmlns="http://www.w3.org/2000/svg"><path d="M26.322 88.01c2.787-2.988 5.6-5.95 8.386-8.938.2-.226.402-.427.603-.653.326-.326.627-.678.954-1.004.929-1.004 1.883-1.983 2.812-2.988a872.142 872.142 0 0117.8-18.253c.628-.627 1.256-1.255 1.909-1.883.125-.125.25-.25.376-.351a905.946 905.946 0 0112.253-11.8c1.882-1.783 3.74-3.54 5.623-5.323l13.106-12.428c.829-.778 1.657-1.557 2.46-2.335l.151-.15c.126-.126.226-.227.327-.352.025-.025.05-.075.075-.1l.226-.302c.025-.025.05-.075.076-.1.075-.1.15-.201.225-.327a.19.19 0 00.05-.1c.076-.1.126-.226.202-.352.025-.025.025-.075.05-.1.05-.125.125-.251.175-.377.025-.025.026-.075.05-.1l.151-.377c0-.025.025-.075.025-.1.05-.126.076-.251.126-.377 0-.05.025-.075.025-.125l.075-.377c0-.05.025-.1.025-.15.026-.126.05-.252.05-.377 0-.05 0-.126.026-.176 0-.125.025-.226.025-.351v-.201-.326-.252c0-.1-.025-.2-.025-.3 0-.101-.025-.177-.025-.277-.025-.1-.025-.176-.05-.276-.026-.1-.026-.201-.05-.301a.893.893 0 01-.051-.252l-.075-.3c-.025-.076-.05-.177-.076-.252-.025-.1-.075-.2-.1-.276 0-.025-.025-.05-.025-.1-.025-.076-.05-.126-.075-.176-.026-.05-.05-.126-.076-.176 0-.025-.025-.05-.05-.075-.025-.076-.075-.151-.1-.226-.05-.1-.1-.201-.176-.302-.025-.025-.05-.05-.05-.1a7.457 7.457 0 00-2.034-2.21c-.05-.025-.1-.075-.15-.1-.05-.05-.126-.075-.176-.125-.1-.076-.201-.151-.327-.201-.025 0-.025-.025-.05-.025a7.382 7.382 0 00-3.34-1.08H86.73c-.1 0-.201 0-.302.025-.1 0-.2.025-.3.05-.051 0-.101.025-.151.025-2.436.427-3.892 2.135-5.474 3.792l-2.762 2.912c-4.017 4.243-8.034 8.461-12.026 12.704-5.549 5.875-11.122 11.725-16.796 17.475-1.206 1.205-2.386 2.41-3.59 3.615l-1.934 1.933c-.226.226-.452.452-.703.678A898.293 898.293 0 0126.925 67.75c-.327.276-.904.627-1.08 1.004-.301.301-.627.578-.929.879-4.042 3.791-8.084 7.557-12.101 11.348-.578.527-1.18 1.055-1.708 1.607l-.025.025c-.828.804-1.43 1.833-1.632 3.013 0 .05-.025.075-.025.126 0 .05 0 .075-.025.125 0 .075-.025.126-.025.201v.602c0 .126 0 .227.025.352V87.132l.075.451c.452 2.185 2.335 3.691 3.917 5.273.025.025.075.075.126.1.552.528 1.104.98 1.782 1.306 1.306.602 2.737.678 3.942.326.126-.025.226-.075.352-.125.3-.1.577-.251.853-.427 1.23-.753 2.16-2.059 3.139-3.113l.15-.151c.829-.879 1.707-1.808 2.586-2.762zm-1.004-1.657c-.628.678-1.28 1.356-1.908 2.034-.879.929-1.758 1.883-2.636 2.812-.076.1-.176.176-.252.276-.652.678-1.456 1.28-2.385 1.481-1.08.176-2.284-.15-3.264-1.08-.2-.175-.376-.35-.577-.552-.2-.2-.402-.427-.603-.627-.175-.176-.351-.327-.527-.502-.25-.251-.502-.528-.778-.779-1.055-1.08-1.406-2.46-1.13-3.665.226-.653.628-1.23 1.105-1.783.1-.1.226-.2.326-.301 1.883-1.758 3.766-3.54 5.65-5.298 1.355-1.28 2.736-2.56 4.092-3.841 1.004-.954 2.008-1.883 3.012-2.837.1-.1.252-.201.327-.302.025-.025.05-.025.05-.05v.226l.15 5.599.227 8.185c-.251.326-.578.678-.879 1.004zm12.227-26.111c.025-.05.025-.075.05-.1.126-.176.402-.327.528-.478.2-.175.376-.376.577-.552l.075-.075.126-.126c.1-.1.2-.2.301-.276.251-.251.502-.502.753-.728l.151-.15c.1-.101.2-.202.326-.302.201-.2.427-.402.628-.628.452-.452.929-.904 1.381-1.355l.351-.352c.226-.226.452-.452.703-.678 1.18-1.18 2.386-2.36 3.566-3.54l.803-.803 1.707-1.708c.754-.753 1.507-1.531 2.26-2.284l.377-.377.175-.176c.578-.602 1.155-1.18 1.733-1.782.301-.302.577-.603.879-.904 2.159-2.235 4.318-4.47 6.477-6.729l1.431-1.506.025-.025c1.582-1.657 3.139-3.315 4.72-4.997.126-.15.277-.276.402-.427 3.766-3.966 7.532-7.933 11.298-11.925.653-.703 1.306-1.381 1.959-2.084l1.305-1.381.377-.377c.828-.853 1.757-1.607 2.887-1.958 1.984-.477 4.369.176 5.8 1.958.025.025.025.05.05.05.05.076.1.126.15.201.026.025.026.05.05.05l.152.226c.25.377.451.829.602 1.28.05.127.075.252.1.352.302 1.331.101 2.662-.477 3.767a5.384 5.384 0 01-1.08 1.405c-.627.603-1.254 1.18-1.882 1.783-.753.703-1.481 1.406-2.235 2.11-.753.702-1.48 1.405-2.234 2.108a3321.62 3321.62 0 00-9.792 9.29c-1.155 1.08-2.285 2.184-3.44 3.264-.326.326-.677.627-1.004.954-.703.652-1.38 1.305-2.084 1.958-.1.1-.226.2-.326.301a585.314 585.314 0 00-6.955 6.679c-.1.1-.226.2-.326.326l-.402.402c-1.556 1.531-3.113 3.038-4.67 4.57-.15.15-.301.3-.477.451a392.153 392.153 0 00-4.57 4.57l-.376.376c-1.506 1.532-3.038 3.063-4.52 4.62-.275.276-.551.552-.828.854l-.678.678-3.766 3.916-.3.302c-.83.878-1.658 1.732-2.486 2.61-.05-2.083-.126-4.192-.176-6.276-.05-1.456-.076-2.912-.126-4.369 0-.25-.025-.477-.025-.728 0-.326-.1-.803-.075-1.155.025.025.05-.05.075-.1zM108.648 28.506c-1.331-2.862-4.369-4.569-7.206-4.469-2.988.126-4.62 2.034-6.377 3.892L80.277 43.546c-5.674 5.975-11.324 11.95-17.123 17.8-7.608 7.683-15.416 15.19-23.325 22.597-4.72 4.444-9.49 8.838-14.185 13.307-1.256 1.205-1.984 2.912-1.607 4.895.402 2.235 2.285 3.741 3.892 5.323 2.058 2.059 4.795 2.511 6.929 1.33 1.105-.627 1.908-1.682 2.737-2.586L49.32 93.735c8.687-9.265 17.524-18.404 26.613-27.267 5.197-5.071 10.47-10.043 15.742-15.039 4.946-4.67 9.867-9.365 14.814-14.035.301-.3.627-.602.928-.878 1.883-1.883 2.637-5.047 1.231-8.01zm-70.852 74.719c-.678.703-1.331 1.431-2.009 2.134-.477.527-.954 1.105-1.506 1.556-1.256.98-3.365 1.03-4.821-.426-1.38-1.381-3.465-2.913-3.666-4.871-.2-1.732.829-2.686 1.858-3.665 2.712-2.536 5.423-5.072 8.11-7.633l2.435-2.285.302 10.269c.025 1.23.125 2.485.1 3.716 0 .577-.452.853-.803 1.205zm68.14-67.915c-2.008 1.959-4.067 3.867-6.101 5.8-3.314 3.139-6.603 6.277-9.917 9.415-2.235 2.11-4.47 4.218-6.679 6.327-.125.1-.226.226-.351.327-9.039 8.586-17.901 17.374-26.513 26.387a733.397 733.397 0 00-6.076 6.428c-.1-3.817-.226-7.633-.327-11.45 0-.4-.125-.978-.05-1.355.1-.402.653-.753.954-1.03.452-.426.88-.853 1.331-1.28l2.385-2.31a719.012 719.012 0 009.817-9.741 886.245 886.245 0 0012.654-13.081c2.385-2.536 4.795-5.047 7.18-7.582l9.29-9.817c1.582-1.657 3.114-3.39 4.72-4.996 2.134-2.11 6.553-2.06 8.562 1.456 1.356 2.385.678 4.971-.879 6.502z"/></svg><svg viewBox="0 0 111 115" id="catalog-arrow" xmlns="http://www.w3.org/2000/svg"><path d="M.406 4.549h13.376l.054 85.712 86.19-85.19 8.905 8.905-85.19 86.19 85.712.054v13.376H.406V4.549z"/></svg><svg viewBox="0 0 348 256" id="designed-arrow-big" xmlns="http://www.w3.org/2000/svg"><path d="M257.287 614.386c-2.358 1.722-4.14 4.034-5.344 6.937-1.233 5.237.455 10.509 4.516 12.894l67.758 49.269c5.793 4.156 13.409 2.499 16.979-2.709 1.782-2.312 2.979-4.632 3.008-6.965.05-4.085-2.244-7.614-5.136-9.984l-31.276-22.56c-10.422-7.714-10.228-23.468.381-30.923l31.829-22.366c5.893-4.012 7.155-11.583 3.13-16.884-4.018-5.885-11.598-7.146-16.907-3.126l-68.938 46.417zM261.407 280.066c-2.358 1.722-4.14 4.034-5.344 6.937-1.233 5.237.455 10.509 4.516 12.894l67.758 49.269c5.792 4.156 13.409 2.499 16.979-2.709 1.781-2.312 2.979-4.632 3.015-7.549.05-4.084-1.66-7.606-5.136-9.983l-31.276-22.56c-10.422-7.715-10.228-23.468.381-30.924l32.406-21.775c5.893-4.012 7.155-11.583 3.13-16.884-4.018-5.885-11.598-7.146-16.907-3.126l-69.522 46.41zM262.984 9.904c-1.781 2.313-2.394 4.64-2.423 6.973-.05 4.084 1.659 7.607 5.136 9.984l60.235 43.34c.585.008.577.591 1.162.599l5.215 3.565c5.792 4.156 13.408 2.5 16.978-2.709 1.782-2.312 2.395-4.638 2.424-6.972.05-4.084-1.66-7.607-5.136-9.984l-60.236-43.34c-.584-.008-.577-.591-1.161-.598l-4.631-3.559c-5.792-4.156-13.401-3.083-17.563 2.701zM170.289 466.845c2.358-1.722 4.14-4.034 5.344-6.937 1.233-5.237-.455-10.509-4.516-12.894L18.787 337.765c-5.792-4.156-13.41-2.499-16.98 2.709-1.78 2.312-2.394 4.638-2.422 6.972-.05 4.084 1.659 7.607 5.135 9.984l116.425 83.131c10.423 7.714 10.229 23.467-.381 30.923L2.126 551.721c-5.892 4.012-7.154 11.582-3.13 16.884 4.019 5.885 11.6 7.145 16.908 3.126l154.385-104.886z"/><path d="M84.99 465.794c2.359-1.722 4.14-4.034 5.344-6.937 1.233-5.237-.455-10.509-4.515-12.894l-67.766-48.685c-5.792-4.157-13.409-2.5-16.979 2.708-1.781 2.312-2.394 4.639-2.423 6.973-.05 4.084 1.659 7.606 5.136 9.983l31.275 22.56c10.423 7.715 10.229 23.468-.38 30.924L2.274 492.201c-5.893 4.012-7.155 11.583-3.13 16.884 4.018 5.885 11.599 7.146 16.907 3.126l68.938-46.417z"/><path d="M90.647 6.614c-1.781 2.312-2.394 4.639-2.423 6.973-.05 4.084 1.66 7.606 5.136 9.983l116.424 83.131c10.423 7.714 10.229 23.468-.381 30.923L90.966 217.861 4.934 276.322c-2.358 1.722-4.14 4.034-5.344 6.937-1.233 5.237.455 10.51 4.516 12.894l152.9 110.423 48.652 35.029c10.422 7.714 10.228 23.467-.381 30.923L86.839 552.765.808 611.226c-2.359 1.722-4.14 4.034-5.345 6.937-1.233 5.236.455 10.509 4.516 12.893l152.908 109.84c5.792 4.156 13.408 2.5 16.978-2.708 1.782-2.313 2.395-4.639 2.424-6.973.05-4.084-1.66-7.606-5.136-9.984l-116.425-83.13c-10.423-7.715-10.228-23.468.381-30.923l118.438-80.237 86.039-59.045c2.358-1.722 4.14-4.034 5.344-6.937 1.233-5.237-.455-10.509-4.516-12.894L104.083 338.816l-48.651-35.028c-10.423-7.715-10.229-23.468.38-30.923l118.439-80.237 86.031-58.462c2.359-1.721 4.14-4.034 5.344-6.937 1.234-5.236-.454-10.509-4.515-12.893L108.78 5.086C102.418-.243 94.809.83 90.647 6.615z"/><path d="M175.946 7.665c-1.782 2.312-2.395 4.639-2.423 6.973-.051 4.084 1.659 7.606 5.136 9.983l116.424 83.131c10.423 7.714 10.229 23.468-.381 30.923l-118.438 80.237-86.031 58.461c-2.359 1.722-4.14 4.034-5.344 6.937-1.234 5.237.454 10.509 4.515 12.894l152.901 110.423 48.652 35.029c10.422 7.714 10.228 23.467-.382 30.923l-118.437 80.237-86.032 58.461c-2.358 1.722-4.14 4.034-5.344 6.937-1.233 5.236.455 10.509 4.516 12.893l152.908 109.84c5.792 4.156 13.408 2.5 16.978-2.708 1.782-2.312 2.395-4.639 2.423-6.973.051-4.084-1.659-7.606-5.135-9.983l-116.425-83.131c-10.423-7.715-10.229-23.468.381-30.923l118.438-80.237 86.623-59.038c2.358-1.722 4.14-4.034 5.344-6.937 1.233-5.236-.455-10.509-4.516-12.893l-152.331-109.25-48.651-35.028c-10.423-7.715-10.229-23.468.381-30.923l118.438-80.237 85.461-59.636c2.359-1.721 4.14-4.034 5.345-6.936 1.233-5.237-.455-10.51-4.516-12.894L194.093 4.97c-6.376-4.163-13.986-3.09-18.147 2.695z"/><path d="M171.405 613.328c-2.359 1.722-4.14 4.034-5.344 6.937-1.234 5.237.454 10.509 4.515 12.893l152.908 109.84c5.792 4.156 13.409 2.5 16.979-2.708 1.781-2.312 2.979-4.632 3.007-6.966.051-4.084-1.659-7.606-5.136-9.983L221.91 640.21c-10.423-7.715-10.229-23.468.381-30.923l118.438-80.237c5.892-4.012 7.154-11.583 3.129-16.884-4.018-5.885-11.598-7.146-16.907-3.126L171.405 613.328zM174.415 131.941c2.359-1.722 4.14-4.034 5.345-6.937 1.233-5.236-.455-10.509-4.516-12.893L22.914 2.861C17.12-1.294 9.503.363 5.933 5.572c-1.781 2.311-2.394 4.638-2.423 6.972-.05 4.084 1.66 7.606 5.136 9.983l116.425 83.131c10.423 7.715 10.228 23.468-.381 30.923L6.253 216.817C.36 220.829-.9 228.4 3.123 233.701c4.018 5.885 11.599 7.146 16.907 3.126l154.385-104.886z"/><path d="M89.117 130.89c2.358-1.722 4.14-4.034 5.344-6.937 1.233-5.236-.455-10.509-4.516-12.893L22.18 62.374c-5.792-4.156-13.408-2.5-16.978 2.708-1.782 2.313-2.395 4.64-2.424 6.973-.05 4.084 1.66 7.607 5.136 9.984l31.276 22.56c10.422 7.714 10.228 23.468-.381 30.923L6.402 157.297c-5.893 4.013-7.155 11.583-3.13 16.885 4.018 5.885 11.598 7.145 16.907 3.126l68.938-46.418zM175.524 279.008c-2.358 1.722-4.14 4.034-5.344 6.937-1.233 5.236.455 10.509 4.516 12.893l152.908 109.84c5.792 4.156 13.408 2.499 16.978-2.708 1.782-2.313 2.979-4.632 3.008-6.966.05-4.084-1.659-7.606-5.136-9.983L226.029 305.89c-10.422-7.715-10.228-23.468.381-30.923l118.438-80.237c5.893-4.013 7.155-11.583 3.13-16.885-4.018-5.884-11.599-7.145-16.907-3.126L175.524 279.008zM82.816 737.115c1.781-2.312 2.394-4.639 2.423-6.973.05-4.084-1.66-7.606-5.136-9.983l-60.235-43.341c-.585-.007-.577-.591-1.162-.598l-4.63-3.558c-5.793-4.157-13.41-2.5-16.98 2.708-1.78 2.312-2.394 4.639-2.422 6.973-.05 4.084 1.659 7.606 5.135 9.983l60.236 43.341c-.007.584.577.591.577.591l4.63 3.558c5.793 4.156 13.402 3.083 17.564-2.701z"/></svg><svg viewBox="0 0 129 86" id="designed-arrows" xmlns="http://www.w3.org/2000/svg"><path d="M34.703 39.056c.84.613 1.475 1.437 1.904 2.471.439 1.866-.162 3.744-1.609 4.593L10.859 63.674c-2.063 1.48-4.777.89-6.049-.965-.634-.824-1.06-1.65-1.071-2.482-.018-1.455.8-2.712 1.83-3.556l11.141-8.038c3.714-2.748 3.644-8.36-.135-11.016l-11.34-7.968c-2.099-1.429-2.548-4.126-1.114-6.015 1.431-2.096 4.132-2.545 6.023-1.113l24.559 16.536zM33.235-80.045c.84.613 1.475 1.437 1.904 2.471.44 1.866-.162 3.744-1.609 4.594L9.391-55.428c-2.063 1.48-4.776.89-6.048-.965-.635-.824-1.061-1.65-1.074-2.69-.018-1.455.59-2.71 1.83-3.556l11.141-8.037c3.713-2.748 3.644-8.36-.136-11.016L3.56-89.45c-2.1-1.43-2.549-4.126-1.115-6.015 1.431-2.096 4.132-2.545 6.023-1.114l24.767 16.534zM32.673-176.29c.635.824.853 1.653.864 2.484.017 1.455-.591 2.71-1.83 3.557l-21.459 15.44c-.208.003-.205.211-.414.213l-1.857 1.27c-2.064 1.481-4.777.891-6.049-.964a3.992 3.992 0 01-.863-2.484c-.018-1.455.59-2.71 1.83-3.557l21.458-15.44c.208-.003.206-.211.414-.213l1.65-1.268c2.063-1.48 4.774-1.098 6.256.962zM65.696-13.505c-.84-.614-1.475-1.438-1.904-2.472-.44-1.865.162-3.744 1.609-4.593l54.267-38.92c2.064-1.48 4.777-.89 6.049.965.635.824.853 1.653.863 2.484.018 1.455-.591 2.71-1.829 3.557L83.274-22.87c-3.713 2.748-3.644 8.36.136 11.016l42.193 28.584c2.1 1.43 2.549 4.127 1.115 6.015-1.431 2.097-4.132 2.546-6.023 1.114l-55-37.365z"/><path d="M96.083-13.88c-.84-.613-1.474-1.437-1.903-2.471-.44-1.866.161-3.744 1.608-4.593L119.93-38.29c2.063-1.48 4.776-.89 6.048.965.635.824.853 1.653.864 2.484.018 1.455-.592 2.71-1.83 3.557l-11.142 8.037c-3.713 2.748-3.644 8.36.136 11.016l11.544 7.758c2.1 1.429 2.549 4.126 1.115 6.015-1.431 2.096-4.132 2.545-6.023 1.113L96.083-13.88z"/><path d="M94.068-177.462c.635.824.853 1.653.863 2.484.018 1.455-.59 2.71-1.83 3.557l-41.475 29.615c-3.713 2.748-3.644 8.36.135 11.016l42.194 28.585 30.648 20.826c.84.614 1.475 1.437 1.904 2.472.439 1.865-.162 3.743-1.609 4.593l-54.47 39.338-17.332 12.479c-3.713 2.748-3.644 8.36.136 11.016l42.193 28.584 30.648 20.827c.84.614 1.475 1.437 1.904 2.471.439 1.866-.162 3.744-1.609 4.594l-54.473 39.13c-2.063 1.48-4.776.89-6.048-.965a3.99 3.99 0 01-.864-2.484c-.017-1.455.591-2.71 1.83-3.557l41.476-29.615c3.713-2.748 3.644-8.36-.136-11.016L65.96 7.904 35.31-13.131c-.841-.613-1.476-1.437-1.905-2.471-.44-1.866.162-3.744 1.609-4.593l54.267-38.92 17.332-12.48c3.714-2.748 3.644-8.36-.135-11.016l-42.194-28.584-30.648-20.827c-.84-.613-1.475-1.437-1.904-2.471-.44-1.865.162-3.744 1.609-4.593l54.267-38.92c2.267-1.899 4.978-1.516 6.46.544z"/><path d="M63.68-177.087c.635.823.854 1.652.864 2.484.018 1.455-.591 2.709-1.83 3.556l-41.476 29.615c-3.713 2.749-3.644 8.361.136 11.017l42.193 28.584 30.649 20.827c.84.613 1.475 1.437 1.904 2.471.439 1.865-.163 3.744-1.61 4.593L40.04-34.602l-17.332 12.48c-3.713 2.747-3.644 8.36.136 11.016l42.193 28.584 30.649 20.827c.84.613 1.475 1.437 1.904 2.47.439 1.866-.162 3.745-1.61 4.594L41.509 84.5c-2.064 1.481-4.777.89-6.049-.965a3.991 3.991 0 01-.863-2.484c-.018-1.455.591-2.71 1.83-3.556l41.476-29.615c3.713-2.749 3.644-8.36-.136-11.017L35.573 8.278 4.713-12.754c-.84-.613-1.474-1.437-1.904-2.471-.439-1.866.162-3.744 1.61-4.594l54.267-38.92 17.332-12.478c3.713-2.749 3.644-8.36-.136-11.017l-42.193-28.584-30.446-21.245c-.84-.613-1.475-1.437-1.904-2.471-.439-1.866.162-3.744 1.61-4.593l54.267-38.92c2.271-1.483 4.982-1.101 6.465.96z"/><path d="M65.298 38.679c.84.613 1.475 1.437 1.904 2.471.44 1.866-.162 3.744-1.609 4.593L11.12 84.874c-2.063 1.481-4.776.891-6.048-.964-.635-.824-1.061-1.65-1.072-2.482-.018-1.455.591-2.71 1.83-3.556l41.476-29.615c3.713-2.749 3.644-8.36-.136-11.017L4.977 8.655c-2.1-1.43-2.549-4.126-1.115-6.015C5.293.544 7.994.095 9.885 1.526L65.298 38.68zM64.226-132.814c-.84-.614-1.475-1.437-1.904-2.471-.44-1.866.162-3.744 1.609-4.594l54.267-38.92c2.064-1.48 4.777-.89 6.049.965.634.824.853 1.653.863 2.484.018 1.455-.591 2.71-1.83 3.557l-41.476 29.615c-3.713 2.748-3.644 8.361.136 11.016l42.193 28.585c2.1 1.429 2.549 4.126 1.115 6.015-1.431 2.096-4.132 2.545-6.023 1.113l-55-37.365z"/><path d="M94.613-133.189c-.84-.613-1.475-1.437-1.904-2.471-.439-1.865.162-3.744 1.61-4.593l24.141-17.344c2.063-1.481 4.776-.891 6.048.965.635.823.853 1.652.863 2.484.018 1.455-.591 2.709-1.829 3.556l-11.142 8.037c-3.713 2.748-3.644 8.361.136 11.016l11.544 7.758c2.1 1.429 2.549 4.126 1.115 6.015-1.431 2.096-4.132 2.545-6.023 1.114l-24.559-16.537zM63.83-80.422c.84.613 1.475 1.437 1.905 2.471.439 1.866-.162 3.744-1.61 4.594L9.654-34.227c-2.064 1.48-4.777.89-6.049-.965-.635-.824-1.061-1.65-1.071-2.481-.018-1.456.59-2.71 1.83-3.557l41.475-29.615c3.713-2.749 3.644-8.36-.135-11.017L3.509-110.446c-2.099-1.429-2.548-4.126-1.114-6.015 1.43-2.096 4.131-2.545 6.023-1.114L63.83-80.422zM96.858 82.778a3.99 3.99 0 01-.863-2.484c-.018-1.455.59-2.71 1.83-3.557l21.458-15.44c.208-.002.206-.21.414-.213l1.65-1.268c2.063-1.48 4.776-.89 6.048.965.635.824.853 1.653.863 2.484.018 1.455-.591 2.71-1.829 3.557l-21.459 15.44c.003.208-.206.21-.206.21l-1.649 1.268c-2.064 1.48-4.774 1.098-6.257-.962z"/></svg><svg viewBox="0 0 20 20" id="eye" xmlns="http://www.w3.org/2000/svg"><path d="M10 5C4.79 5 .781 9.59.781 9.59l-.37.41.37.41s3.655 4.168 8.516 4.55c.232.03.464.04.703.04.24 0 .471-.01.703-.04 4.861-.382 8.516-4.55 8.516-4.55l.37-.41-.37-.41S15.21 5 10 5zm0 1.25c1.377 0 2.646.376 3.75.879.398.66.625 1.418.625 2.246a4.372 4.372 0 01-3.887 4.355c-.012.003-.027-.002-.039 0-.149.008-.298.02-.449.02-.166 0-.327-.01-.488-.02a4.372 4.372 0 01-3.887-4.355c0-.815.22-1.575.605-2.227h-.02C7.325 6.636 8.609 6.25 10 6.25zm0 1.25a1.875 1.875 0 10.001 3.751A1.875 1.875 0 0010 7.5zm-5.469.586c-.097.42-.156.842-.156 1.289a5.58 5.58 0 00.86 2.988A14.5 14.5 0 012.206 10c.3-.308 1.138-1.123 2.324-1.914zm10.938 0A14.957 14.957 0 0117.793 10a14.501 14.501 0 01-3.027 2.363 5.58 5.58 0 00.703-4.277z" opacity=".7"/></svg><svg viewBox="0 0 7 14" id="fb" xmlns="http://www.w3.org/2000/svg"><path d="M1.752 13.3V7.388H.125V5.259h1.627V3.441C1.752 2.012 2.714.7 4.93.7c.897 0 1.56.083 1.56.083L6.436 2.77s-.676-.006-1.414-.006c-.799 0-.927.354-.927.94V5.26H6.5l-.105 2.129h-2.3V13.3H1.752z"/></svg><svg viewBox="0 0 14 14" id="inst" xmlns="http://www.w3.org/2000/svg"><path clip-rule="evenodd" d="M4.355.622C5.04.59 5.258.583 7.001.583c1.743 0 1.96.008 2.644.039.684.03 1.15.14 1.56.298.427.162.815.414 1.136.74.326.321.578.709.74 1.137.158.408.266.875.298 1.557.031.686.038.904.038 2.646 0 1.743-.007 1.961-.038 2.646-.031.682-.14 1.149-.299 1.557a3.15 3.15 0 01-.74 1.137c-.32.327-.708.579-1.136.74-.408.158-.875.267-1.557.298-.685.032-.903.039-2.646.039-1.743 0-1.962-.008-2.646-.039-.682-.03-1.149-.14-1.557-.298a3.15 3.15 0 01-1.137-.74 3.145 3.145 0 01-.74-1.136c-.159-.409-.267-.875-.299-1.558C.591 8.961.584 8.743.584 7c0-1.743.008-1.961.038-2.645.031-.683.14-1.15.299-1.558.161-.428.414-.816.74-1.137.32-.326.708-.579 1.136-.74.408-.158.875-.267 1.558-.298zm5.239 1.155c-.677-.03-.88-.037-2.593-.037-1.714 0-1.917.006-2.593.037-.626.029-.966.133-1.192.221-.3.117-.513.255-.738.48a1.99 1.99 0 00-.48.737c-.088.227-.192.566-.22 1.192-.031.677-.038.88-.038 2.593s.007 1.916.037 2.593c.03.626.133.966.222 1.192.102.278.266.53.48.738.206.213.459.377.737.48.226.087.566.192 1.192.22.676.031.879.038 2.593.038 1.713 0 1.916-.007 2.593-.038.626-.028.965-.133 1.191-.22.3-.117.514-.256.738-.48.213-.207.377-.46.48-.738.088-.226.192-.566.22-1.192.032-.677.038-.88.038-2.593s-.006-1.916-.037-2.593c-.029-.626-.133-.965-.221-1.192a1.992 1.992 0 00-.48-.737 1.99 1.99 0 00-.738-.48c-.226-.088-.566-.192-1.191-.221zM6.18 8.978a2.14 2.14 0 10.61-4.108 2.14 2.14 0 00-.61 4.108zm-1.513-4.31a3.298 3.298 0 114.665 4.664 3.298 3.298 0 01-4.665-4.664zm6.362-.475A.78.78 0 109.96 3.06a.78.78 0 001.07 1.134z"/></svg><svg viewBox="0 0 20 20" id="login" xmlns="http://www.w3.org/2000/svg"><path d="M10 1.875C5.52 1.875 1.875 5.52 1.875 10S5.52 18.125 10 18.125 18.125 14.48 18.125 10 14.48 1.875 10 1.875zm0 1.25A6.866 6.866 0 0116.875 10 6.866 6.866 0 0110 16.875 6.866 6.866 0 013.125 10 6.866 6.866 0 0110 3.125zM10 5a3.134 3.134 0 00-3.125 3.125c0 .947.442 1.79 1.113 2.363a4.378 4.378 0 00-2.363 3.887h1.25A3.115 3.115 0 0110 11.25a3.115 3.115 0 013.125 3.125h1.25a4.378 4.378 0 00-2.363-3.887c.671-.573 1.113-1.416 1.113-2.363A3.134 3.134 0 0010 5zm0 1.25c1.043 0 1.875.833 1.875 1.875A1.866 1.866 0 0110 10a1.866 1.866 0 01-1.875-1.875c0-1.042.833-1.875 1.875-1.875z"/></svg><svg viewBox="0 0 175 55" id="logo" xmlns="http://www.w3.org/2000/svg"><path d="M26.21.786c-.441 0-.736.343-.736.687l.074 14.213c0 1.168-1.545 1.785-2.428.962L12.6 6.69a.747.747 0 00-1.03 0 .7.7 0 00-.073.962l14.272 15.93c.073.068.147.068.294 0a5.888 5.888 0 012.796-1.168c.073 0 .147-.068.147-.137l-2.06-20.874c0-.343-.295-.618-.736-.618zM47.54 6.691a.747.747 0 00-1.03 0l-10.594 9.957c-.882.823-2.427.274-2.427-.962l.073-14.213c0-.412-.367-.687-.735-.687s-.736.275-.736.618l-2.06 20.874c0 .069.074.137.147.137 1.104.069 2.06.481 2.87 1.099.073.069.22.069.294 0L47.54 7.653c.294-.275.22-.687 0-.962zM57.62 23.994l-15.229.069c-1.25 0-1.912-1.442-1.03-2.266l10.741-9.82a.634.634 0 000-.96.83.83 0 00-1.03-.07L34.08 24.2c-.074.069-.074.137 0 .274.662.756 1.103 1.648 1.177 2.678 0 .069.073.138.22.138l22.217-1.854c.368 0 .662-.344.662-.687.074-.412-.294-.755-.736-.755zM52.097 44.595a.634.634 0 000-.962l-10.666-9.887c-.883-.824-.295-2.266 1.03-2.266l15.227.069c.442 0 .736-.344.736-.687 0-.343-.294-.687-.662-.687l-22.29-1.854c-.074 0-.22.069-.22.138A5.105 5.105 0 0134 31.137a.198.198 0 000 .274l16.994 13.252c.368.206.81.138 1.103-.068zM32.753 54.756c.441 0 .736-.343.736-.687l-.074-14.213c0-1.168 1.545-1.785 2.428-.962l10.52 9.957a.747.747 0 001.03 0 .7.7 0 00.073-.962L33.342 32.03c-.074-.07-.148-.07-.295 0-.809.548-1.765.96-2.869 1.029-.073 0-.147.069-.147.206l1.986 20.874c.074.343.368.618.736.618zM11.494 48.85a.747.747 0 001.03 0l10.52-9.956c.883-.824 2.427-.274 2.427.961l-.073 14.214c0 .412.368.686.736.686.367 0 .735-.274.735-.617l1.986-20.943c0-.069-.073-.206-.147-.206-1.03-.137-1.986-.55-2.795-1.099-.074-.068-.22-.068-.294 0l-14.125 16a.634.634 0 000 .96zM.605 30.86c0 .413.368.687.736.687l15.228-.069c1.25 0 1.913 1.442 1.03 2.266l-10.667 9.82a.634.634 0 000 .96.83.83 0 001.03.07l17.14-13.39c.074-.069.074-.137 0-.275-.588-.755-1.03-1.648-1.177-2.61 0-.068-.073-.136-.22-.136L1.268 30.105c-.368.069-.663.343-.663.755zM6.932 10.948a.634.634 0 000 .961l10.667 9.819c.883.824.294 2.266-1.03 2.266H1.341c-.441 0-.736.343-.736.687 0 .343.295.686.663.686l22.437 1.854c.073 0 .22-.069.22-.137a5.588 5.588 0 011.104-2.61.198.198 0 000-.274L7.962 10.948c-.294-.275-.736-.206-1.03 0zM72.134 14.968c1.545 0 2.722.274 3.531.824.81.55 1.25 1.373 1.25 2.472 0 .686-.146 1.236-.514 1.716a4.2 4.2 0 01-1.398 1.03l.662.824.662 1.03c.22.343.442.687.662 1.099.221.412.368.755.589 1.098h-2.575c-.22-.343-.368-.686-.588-.96-.221-.344-.368-.688-.589-.962-.22-.343-.441-.618-.588-.893-.221-.274-.368-.55-.589-.755h-1.177v3.64h-2.28v-9.889l1.544-.206c.515-.068 1.03-.068 1.398-.068zm.147 1.922H71.472v2.678h.662c.883 0 1.471-.137 1.84-.343.367-.206.588-.55.588-1.099 0-.48-.221-.824-.589-1.03-.368-.137-.956-.206-1.692-.206zM83.319 25.268c-.736 0-1.324-.069-1.84-.274a4.207 4.207 0 01-1.323-.825c-.368-.343-.589-.755-.736-1.235a5.489 5.489 0 01-.22-1.58v-6.11h2.28v5.973c0 .412.073.755.147 1.03.073.275.22.48.368.687.147.206.367.274.588.343.22.069.515.137.736.137.588 0 1.03-.137 1.398-.48.367-.344.514-.893.514-1.717v-5.974h2.281v6.111c0 .55-.073 1.099-.22 1.58-.148.48-.442.892-.736 1.235-.368.344-.81.619-1.325.825-.588.137-1.176.274-1.912.274zM93.031 23.345c.368 0 .662 0 .883-.068.22-.069.368-.138.515-.206.147-.069.22-.206.294-.344.074-.137.074-.274.074-.412 0-.343-.147-.617-.515-.824-.368-.206-.883-.412-1.692-.686-.368-.137-.736-.275-1.03-.412-.368-.137-.662-.344-.957-.55a1.892 1.892 0 01-.662-.823c-.147-.344-.294-.687-.294-1.168 0-.48.074-.892.294-1.236.221-.343.442-.686.81-.961.367-.275.735-.48 1.25-.618a6.122 6.122 0 011.619-.206c.735 0 1.324.069 1.912.206.515.137.957.275 1.325.48l-.736 1.786a4.452 4.452 0 00-1.03-.343c-.368-.138-.81-.138-1.324-.138-.589 0-1.03.069-1.25.206-.221.138-.369.344-.369.687 0 .206.074.343.148.48.073.138.22.207.367.344.147.069.368.206.589.275.22.068.441.137.736.274.588.206 1.03.344 1.47.55.442.205.736.411 1.03.617.295.275.516.55.59.893.146.343.22.756.22 1.236 0 .893-.368 1.648-1.03 2.129-.736.48-1.766.755-3.163.755-.515 0-.883 0-1.325-.069a25.453 25.453 0 01-1.03-.206c-.294-.068-.514-.137-.735-.274-.22-.069-.368-.138-.515-.275l.662-1.785c.294.137.736.274 1.177.412.442.206.957.274 1.692.274zM101.93 23.345c.367 0 .662 0 .882-.068.221-.069.368-.138.515-.206.147-.069.221-.206.295-.344.073-.137.073-.274.073-.412 0-.343-.147-.617-.515-.824-.368-.206-.883-.412-1.692-.686a15.106 15.106 0 01-1.03-.412c-.368-.137-.662-.344-.956-.55a1.894 1.894 0 01-.662-.823c-.147-.344-.294-.687-.294-1.168 0-.48.073-.892.294-1.236.22-.343.441-.686.809-.961a3.48 3.48 0 011.251-.618 6.122 6.122 0 011.618-.206c.736 0 1.324.069 1.913.206.515.137.956.275 1.324.48l-.736 1.786a4.448 4.448 0 00-1.03-.343c-.367-.138-.809-.138-1.324-.138-.588 0-1.03.069-1.25.206-.221.138-.368.344-.368.687 0 .206.073.343.147.48.073.138.221.207.368.344.147.069.368.206.588.275.221.068.442.137.736.274.588.206 1.03.344 1.471.55a6.29 6.29 0 011.03.617c.294.275.515.55.589.893.147.343.22.756.22 1.236 0 .893-.368 1.648-1.03 2.129-.735.48-1.765.755-3.163.755-.515 0-.883 0-1.324-.069a25.391 25.391 0 01-1.03-.206c-.294-.068-.515-.137-.736-.274-.22-.069-.367-.138-.515-.275l.663-1.785c.294.137.735.274 1.177.412.441.206 1.029.274 1.692.274zM108.332 15.243h2.648v9.82h-2.648v-9.82zM131.578 25.062a42.93 42.93 0 00-2.206-3.296c-.81-1.098-1.619-2.128-2.502-3.09v6.455h-2.28v-9.888h1.913c.294.343.662.687 1.103 1.167.368.481.809.962 1.251 1.442.441.481.809 1.03 1.25 1.58.442.549.809 1.098 1.177 1.579v-5.768h2.354v9.82h-2.06zM120.761 25.062c-.147-.343-.22-.687-.367-1.03-.148-.343-.295-.686-.368-1.098h-4.046c-.147.343-.295.686-.368 1.098-.147.343-.221.687-.368 1.03h-2.428c.368-1.03.736-2.06 1.104-2.952.368-.893.662-1.717 1.03-2.541.368-.824.662-1.58.956-2.266.294-.687.662-1.442 1.03-2.06h2.207c.368.687.662 1.373 1.03 2.06.294.687.662 1.442 1.03 2.266.368.824.662 1.648 1.03 2.54.368.893.735 1.854 1.103 2.953h-2.575zm-2.795-7.622l-1.471 3.708h2.942l-1.471-3.708zM129.223 54.656c-1.839 0-3.237-.412-4.193-1.373-.956-.892-1.471-2.129-1.471-3.776 0-.824.147-1.58.441-2.198.294-.618.662-1.167 1.177-1.648.515-.48 1.103-.755 1.839-1.03.736-.206 1.471-.343 2.281-.343.515 0 .882 0 1.324.069.368.068.735.137 1.03.206.294.068.515.137.735.274.221.138.368.138.442.206l-.736 1.786a12.479 12.479 0 00-1.251-.412c-.441-.138-.956-.138-1.544-.138-.368 0-.81.069-1.177.138-.368.137-.736.274-1.03.549-.295.275-.515.55-.662.961-.148.412-.295.893-.295 1.442 0 .48.074.893.147 1.305.148.412.295.755.589 1.03.221.274.589.48 1.03.687.441.137.883.274 1.471.274.368 0 .736 0 1.03-.069.294-.068.589-.068.809-.137a5.26 5.26 0 00.589-.206c.147-.069.368-.137.441-.206l.736 1.785c-.368.206-.883.344-1.545.481-.588.275-1.324.343-2.207.343zM107.079 44.357c1.545 0 2.722.275 3.531.824.81.55 1.251 1.374 1.251 2.472 0 .687-.147 1.236-.515 1.717a4.198 4.198 0 01-1.398 1.03l.662.824.663 1.03c.22.343.441.687.662 1.098.22.412.367.756.588 1.1h-2.575c-.22-.344-.367-.688-.588-.962-.221-.344-.368-.687-.589-.962-.22-.343-.441-.617-.588-.892-.221-.275-.368-.55-.589-.756h-1.177v3.64h-2.28v-9.888l1.545-.206c.515 0 1.029-.069 1.397-.069zm.147 1.923H106.417v2.678h.662c.883 0 1.472-.137 1.839-.343.368-.206.589-.55.589-1.099 0-.48-.221-.824-.589-1.03-.367-.069-.956-.206-1.692-.206zM159.677 44.356c1.545 0 2.722.275 3.531.824.809.55 1.251 1.374 1.251 2.472 0 .687-.147 1.236-.515 1.717a4.198 4.198 0 01-1.398 1.03l.662.824.662 1.03c.221.343.442.687.662 1.099.221.411.368.755.589 1.098h-2.575c-.221-.343-.368-.687-.589-.961-.22-.343-.367-.687-.588-.961-.221-.344-.441-.618-.589-.893-.22-.275-.367-.55-.588-.755h-1.177v3.639h-2.281V44.63l1.545-.206c.442 0 .957-.069 1.398-.069zm.147 1.923H159.015v2.678h.662c.883 0 1.471-.137 1.839-.343.368-.206.589-.55.589-1.099 0-.48-.221-.824-.589-1.03-.441-.069-.956-.206-1.692-.206zM117.749 54.657c-.736 0-1.325-.069-1.84-.275a4.205 4.205 0 01-1.324-.824c-.368-.343-.588-.755-.735-1.236a5.457 5.457 0 01-.221-1.58v-6.11h2.28v5.974c0 .412.074.755.148 1.03.073.274.22.48.367.686.147.206.368.275.589.343.221.07.515.138.736.138.588 0 1.029-.137 1.397-.48.368-.344.515-.893.515-1.717v-5.974h2.281v6.11c0 .55-.074 1.1-.221 1.58-.147.48-.441.893-.736 1.236a4.194 4.194 0 01-1.324.824c-.588.206-1.177.275-1.912.275zM88.543 52.802c.368 0 .662 0 .883-.068.22-.069.367-.138.514-.206.148-.069.221-.206.295-.343.073-.138.073-.275.073-.413 0-.343-.147-.617-.515-.823-.367-.206-.882-.413-1.692-.687-.367-.138-.735-.275-1.03-.412-.367-.138-.662-.343-.956-.55a1.893 1.893 0 01-.662-.823c-.147-.344-.294-.687-.294-1.168 0-.48.073-.892.294-1.236.22-.343.441-.686.81-.96.367-.276.735-.482 1.25-.619a6.122 6.122 0 011.618-.206c.736 0 1.325.069 1.913.206.515.137.956.275 1.324.48l-.736 1.786a4.453 4.453 0 00-1.03-.343c-.367-.138-.809-.138-1.324-.138-.588 0-1.03.069-1.25.206-.22.138-.368.344-.368.687 0 .206.074.343.147.48.074.138.22.207.368.344.147.069.368.206.588.275.221.068.442.137.736.274.589.206 1.03.344 1.471.55.442.206.736.412 1.03.617.295.275.515.55.589.893.147.344.22.756.22 1.236 0 .893-.367 1.648-1.03 2.129-.735.48-1.765.755-3.163.755-.515 0-.882 0-1.324-.069-.368-.068-.735-.137-1.03-.206-.294-.068-.515-.137-.735-.274-.221-.069-.368-.138-.515-.275l.662-1.785c.294.137.735.274 1.177.412.441.206 1.03.274 1.692.274zM169.98 52.802c.368 0 .662 0 .883-.068.221-.069.368-.138.515-.206.147-.069.221-.206.294-.343.074-.138.074-.275.074-.413 0-.343-.147-.617-.515-.823-.368-.206-.883-.413-1.692-.687-.368-.138-.736-.275-1.03-.412-.368-.138-.662-.343-.956-.55a1.887 1.887 0 01-.662-.823c-.148-.344-.295-.687-.295-1.168 0-.48.074-.892.295-1.236.22-.343.441-.686.809-.96.368-.276.735-.482 1.25-.619a6.124 6.124 0 011.619-.206c.736 0 1.324.069 1.913.206.515.137.956.275 1.324.48l-.736 1.786a4.448 4.448 0 00-1.03-.343c-.368-.138-.809-.138-1.324-.138-.589 0-1.03.069-1.251.206-.22.138-.367.344-.367.687 0 .206.073.343.147.48.073.138.22.207.368.344.147.069.367.206.588.275.221.068.441.137.736.274.588.206 1.03.344 1.471.55.441.206.736.412 1.03.617.294.275.515.55.588.893.148.344.221.756.221 1.236 0 .893-.368 1.648-1.03 2.129-.735.48-1.765.755-3.163.755-.515 0-.883 0-1.324-.069-.368-.068-.736-.137-1.03-.206-.294-.068-.515-.137-.736-.274-.221-.069-.368-.138-.515-.275l.662-1.785c.295.137.736.274 1.177.412.442.206 1.03.274 1.692.274zM81.407 54.452a42.89 42.89 0 00-2.207-3.296c-.81-1.099-1.619-2.129-2.502-3.09v6.454h-2.28v-9.887h1.913c.294.343.662.686 1.103 1.167.368.48.81.961 1.25 1.442.442.48.81 1.03 1.251 1.58.442.549.81 1.098 1.177 1.579v-5.768h2.355v9.819h-2.06zM102.811 44.633v1.854h-3.236v7.896h-2.428v-7.896H93.91v-1.854h8.901zM143.272 44.632v1.854h-3.236v7.896h-2.428v-7.896h-3.237v-1.854h8.901zM68.348 44.632h2.648v9.819h-2.648v-9.82zM155.339 49.576c0 .892-.147 1.648-.442 2.334-.294.687-.662 1.236-1.177 1.717a4.53 4.53 0 01-1.765 1.03 7.385 7.385 0 01-2.207.343 7.283 7.283 0 01-2.134-.343 4.53 4.53 0 01-1.765-1.03c-.515-.48-.883-1.03-1.177-1.717-.294-.686-.442-1.441-.442-2.334s.148-1.648.442-2.335c.294-.686.736-1.236 1.177-1.716a4.53 4.53 0 011.765-1.03 7.283 7.283 0 012.134-.344c.735 0 1.471.138 2.133.344.662.206 1.251.549 1.766 1.03.515.48.883 1.03 1.177 1.716.368.618.515 1.442.515 2.335zm-8.46 0c0 .48.073.961.22 1.373.148.412.295.755.589 1.03.221.275.589.55.883.687.368.137.809.206 1.25.206.442 0 .883-.069 1.251-.206.368-.138.662-.412.956-.687a3.56 3.56 0 00.589-1.03 4.16 4.16 0 00.221-1.373c0-.48-.074-.962-.221-1.373-.147-.412-.294-.756-.589-1.03a2.37 2.37 0 00-.956-.687 3.657 3.657 0 00-1.251-.206c-.441 0-.882.069-1.25.275-.368.137-.662.412-.883.686a3.58 3.58 0 00-.589 1.03c-.147.343-.22.755-.22 1.305zM77.285 39.757V29.94h6.989v1.853h-4.708v1.923h4.12V35.5h-4.12v2.335h5.002v1.854h-7.283v.068zM118.262 39.757V29.94h6.988v1.853h-4.708v1.923h4.12V35.5h-4.12v2.335h5.003v1.854h-7.283v.068zM142.977 39.757V29.94h7.356v1.853h-5.002v1.923h4.119V35.5h-4.119v4.189h-2.354v.068zM102.586 31.585c-1.104 0-1.913.275-2.428.893-.515.549-.736 1.373-.736 2.334 0 .48.074.893.148 1.305.147.412.294.755.515 1.03.22.275.514.48.882.686.368.138.81.206 1.251.206h.662c.221 0 .368 0 .515-.068v-3.433h2.354v4.875c-.294.137-.736.206-1.398.343-.662.137-1.397.206-2.354.206a6.544 6.544 0 01-2.133-.343 3.568 3.568 0 01-1.619-1.03 4.039 4.039 0 01-1.03-1.58 6.6 6.6 0 01-.367-2.197c0-.824.147-1.58.441-2.197a6.635 6.635 0 011.103-1.648c.442-.412 1.03-.755 1.693-1.03.662-.206 1.324-.343 2.059-.343.515 0 .957 0 1.324.068.368.07.736.138 1.03.206.295.07.515.138.736.275.221.069.294.137.368.206l-.662 1.785a8.901 8.901 0 00-1.104-.412 5.636 5.636 0 00-1.25-.137zM111.932 39.963c-.736 0-1.324-.068-1.839-.274a4.207 4.207 0 01-1.324-.824c-.368-.343-.589-.756-.736-1.236a5.492 5.492 0 01-.221-1.58v-6.11h2.281v5.973c0 .412.074.756.147 1.03.074.275.221.48.368.687.147.206.368.275.588.343.221.069.515.137.736.137.589 0 1.03-.137 1.398-.48.368-.343.515-.893.515-1.717V29.94h2.28v6.11c0 .55-.073 1.1-.22 1.58-.147.48-.442.893-.736 1.236a4.207 4.207 0 01-1.324.824c-.515.206-1.177.274-1.913.274zM93.691 39.757c-.147-.343-.22-.686-.368-1.03-.147-.343-.294-.686-.368-1.098H88.91c-.147.343-.294.687-.367 1.099-.148.343-.221.686-.368 1.03h-2.428c.368-1.03.736-2.06 1.104-2.953.367-.893.662-1.717 1.03-2.54.367-.825.662-1.58.956-2.267.294-.686.662-1.442 1.03-2.06h2.207c.368.687.662 1.374 1.03 2.06.294.687.662 1.442 1.03 2.266.367.824.662 1.648 1.03 2.54.367.893.735 1.855 1.103 2.953H93.69zm-2.795-7.621l-1.472 3.708h2.943l-1.471-3.708zM141.136 34.812c0 .893-.147 1.648-.442 2.335-.294.686-.662 1.236-1.177 1.716a4.53 4.53 0 01-1.765 1.03 7.385 7.385 0 01-2.207.344 7.277 7.277 0 01-2.134-.344 4.53 4.53 0 01-1.765-1.03c-.515-.48-.883-1.03-1.177-1.716-.295-.687-.442-1.442-.442-2.335 0-.892.147-1.648.442-2.334.294-.687.735-1.236 1.177-1.717a4.53 4.53 0 011.765-1.03 7.277 7.277 0 012.134-.343c.735 0 1.471.137 2.133.343.662.206 1.251.55 1.766 1.03.515.48.882 1.03 1.177 1.717.294.686.515 1.441.515 2.334zm-8.46 0c0 .48.073.962.22 1.373.148.412.295.756.589 1.03.221.275.588.55.883.687.368.137.809.206 1.25.206.442 0 .883-.069 1.251-.206.368-.137.662-.412.956-.687.221-.274.442-.618.589-1.03a4.16 4.16 0 00.22-1.373c0-.48-.073-.961-.22-1.373-.147-.412-.295-.755-.589-1.03a2.37 2.37 0 00-.956-.687 3.655 3.655 0 00-1.251-.206c-.441 0-.882.069-1.25.275-.368.137-.662.412-.883.687a3.582 3.582 0 00-.589 1.03c-.147.343-.22.823-.22 1.304zM75.959 37.835v1.922h-6.842V29.94h2.354v7.896h4.488zM76.106 10.3a42.899 42.899 0 00-2.207-3.296c-.81-1.1-1.618-2.129-2.501-3.09v6.385h-2.28V.48h1.912c.294.344.662.687 1.103 1.168.442.412.81.892 1.25 1.442.442.48.81 1.03 1.252 1.579.44.55.809 1.099 1.177 1.58V.48h2.354v9.82h-2.06zM87.433 10.3c-.147-.344-.22-.687-.368-1.03-.147-.344-.294-.687-.367-1.1h-4.046c-.148.344-.295.688-.368 1.1-.147.343-.221.686-.368 1.03h-2.428c.368-1.03.736-2.06 1.104-2.953.368-.893.662-1.717 1.03-2.54.368-.825.662-1.58.956-2.267.294-.686.662-1.442 1.03-2.06h2.207c.368.687.662 1.374 1.03 2.06.294.687.662 1.442 1.03 2.266.368.824.662 1.648 1.03 2.54.367.894.735 1.855 1.103 2.953h-2.575zm-2.795-7.554l-1.472 3.708h2.943l-1.471-3.708zM125.543 10.3a42.669 42.669 0 00-2.207-3.296c-.809-1.1-1.618-2.129-2.501-3.09v6.385h-2.28V.48h1.912c.295.344.662.687 1.104 1.168.368.48.809.961 1.25 1.442.442.48.81 1.03 1.251 1.579.441.55.809 1.099 1.177 1.58V.48h2.354v9.82h-2.06zM136.797 10.3c-.148-.344-.221-.687-.368-1.03-.147-.344-.295-.687-.368-1.1h-4.046c-.147.344-.294.688-.368 1.1-.147.343-.221.686-.368 1.03h-2.427c.367-1.03.735-2.06 1.103-2.953.368-.893.662-1.717 1.03-2.54.368-.825.662-1.58.956-2.267.295-.686.662-1.442 1.03-2.06h2.207c.368.687.662 1.374 1.03 2.06.294.687.662 1.442 1.03 2.266.368.824.662 1.648 1.03 2.54.368.894.735 1.855 1.103 2.953h-2.574zm-2.796-7.554l-1.471 3.708h2.942l-1.471-3.708zM98.616.48v1.854H95.38V10.3h-2.427V2.403h-3.237V.48h8.901zM100.676.481h2.648v9.82h-2.648V.48zM116.417 5.424c0 .893-.147 1.648-.442 2.335-.294.687-.662 1.236-1.177 1.717a4.53 4.53 0 01-1.765 1.03 7.385 7.385 0 01-2.207.343 7.27 7.27 0 01-2.133-.343 4.526 4.526 0 01-1.766-1.03c-.515-.481-.883-1.03-1.177-1.717-.294-.687-.441-1.442-.441-2.335 0-.892.147-1.647.441-2.334.294-.687.736-1.236 1.177-1.717a4.526 4.526 0 011.766-1.03A7.27 7.27 0 01110.826 0a7.27 7.27 0 012.133.343c.662.206 1.251.55 1.766 1.03.515.48.883 1.03 1.177 1.717.294.687.515 1.442.515 2.334zm-8.46 0c0 .481.073.962.221 1.374.147.412.294.755.588 1.03.221.274.589.549.883.686.368.138.809.206 1.251.206.441 0 .882-.068 1.25-.206.368-.137.662-.412.956-.686.221-.275.442-.618.589-1.03a4.16 4.16 0 00.221-1.374c0-.48-.074-.96-.221-1.373-.147-.412-.294-.755-.589-1.03a2.37 2.37 0 00-.956-.686 3.655 3.655 0 00-1.25-.206c-.442 0-.883.068-1.251.274-.368.138-.662.412-.883.687a3.558 3.558 0 00-.588 1.03c-.148.343-.221.755-.221 1.304zM147.466 8.377v1.922h-6.841V.48h2.281v7.897h4.56z"/></svg><svg viewBox="0 0 20 20" id="poorVision" xmlns="http://www.w3.org/2000/svg"><path d="M10 5C4.79 5 .781 9.59.781 9.59l-.37.41.37.41s3.655 4.168 8.516 4.55c.232.03.464.04.703.04.24 0 .471-.01.703-.04 4.861-.382 8.516-4.55 8.516-4.55l.37-.41-.37-.41S15.21 5 10 5zm0 1.25c1.377 0 2.646.376 3.75.879.398.66.625 1.418.625 2.246a4.372 4.372 0 01-3.887 4.355c-.012.003-.027-.002-.039 0-.149.008-.298.02-.449.02-.166 0-.327-.01-.488-.02a4.372 4.372 0 01-3.887-4.355c0-.815.22-1.575.605-2.227h-.02C7.325 6.636 8.609 6.25 10 6.25zm0 1.25a1.875 1.875 0 10.001 3.751A1.875 1.875 0 0010 7.5zm-5.469.586c-.097.42-.156.842-.156 1.289a5.58 5.58 0 00.86 2.988A14.5 14.5 0 012.206 10c.3-.308 1.138-1.123 2.324-1.914zm10.938 0A14.957 14.957 0 0117.793 10a14.501 14.501 0 01-3.027 2.363 5.58 5.58 0 00.703-4.277z" opacity=".7"/></svg><svg viewBox="0 0 25 25" id="search" xmlns="http://www.w3.org/2000/svg"><path d="M22.833 21.137l.177.177-.177.176-1.123 1.123-.177.177-.177-.177-6.067-6.067a8.001 8.001 0 01-4.913 1.673c-4.444 0-8.063-3.619-8.063-8.063 0-4.444 3.619-8.062 8.063-8.062 4.444 0 8.063 3.618 8.063 8.062a8 8 0 01-1.674 4.913l6.068 6.068zM10.376 4.157c-3.323 0-6 2.677-6 6 0 3.322 2.677 6 6 6s6-2.678 6-6c0-3.323-2.677-6-6-6z"/></svg><svg viewBox="0 0 38 38" id="slider-news-arrow" xmlns="http://www.w3.org/2000/svg"><path d="M37.2 36.497h-4.5l-.018-28.323L3.69 36.324.695 33.382 29.35 4.902.52 4.882V.463H37.2v36.034z"/></svg><svg viewBox="0 0 18 18" id="tel" xmlns="http://www.w3.org/2000/svg"><path clip-rule="evenodd" d="M6.615 2.702a2.25 2.25 0 00-3.181 0l-.49.49c-.74.74-1.037 1.798-.843 2.821.402 2.128 1.624 4.406 3.552 6.334s4.206 3.15 6.333 3.552c1.024.193 2.08-.103 2.822-.844l.489-.488a2.25 2.25 0 000-3.182l-.88-.88a1.875 1.875 0 00-2.652 0l-.59.59a8.785 8.785 0 01-2.503-1.767 8.765 8.765 0 01-1.766-2.504l.526-.526c.769-.769.823-1.956.064-2.715l-.88-.88zm-2.12 1.06a.75.75 0 011.06 0l.88.881c.072.072.105.16.102.253a.508.508 0 01-.166.341l-.614.613a1.312 1.312 0 00-.28 1.454 10.227 10.227 0 002.134 3.084c.942.942 2 1.658 3.084 2.136a1.312 1.312 0 001.454-.28l.678-.679a.374.374 0 01.53 0l.879.88a.75.75 0 010 1.06l-.488.49c-.37.37-.917.537-1.483.43-1.792-.339-3.806-1.394-5.551-3.14-1.746-1.744-2.8-3.759-3.14-5.55-.106-.567.061-1.113.431-1.483l.49-.49z" opacity=".5"/></svg><svg viewBox="0 0 15 14" id="tw" xmlns="http://www.w3.org/2000/svg"><path d="M14.777 2.88a6.158 6.158 0 01-1.672.428 2.766 2.766 0 001.28-1.504 6.07 6.07 0 01-1.848.66 2.982 2.982 0 00-1.653-.825 3.094 3.094 0 00-1.848.286 2.804 2.804 0 00-1.28 1.277 2.552 2.552 0 00-.18 1.74 8.735 8.735 0 01-3.325-.824 8.189 8.189 0 01-2.677-2.015c-.25.402-.394.87-.394 1.366 0 .447.118.888.344 1.283.226.394.553.73.951.98a3.064 3.064 0 01-1.318-.34v.034c0 .628.232 1.236.658 1.722a2.955 2.955 0 001.677.943 3.136 3.136 0 01-1.315.046c.186.54.548 1.013 1.036 1.35a3.05 3.05 0 001.684.537 6.114 6.114 0 01-3.616 1.164 6.35 6.35 0 01-.695-.038 8.667 8.667 0 004.462 1.22c5.357 0 8.285-4.14 8.285-7.73 0-.117-.003-.235-.009-.352a5.716 5.716 0 001.452-1.406l.001-.002z"/></svg><svg viewBox="0 0 18 18" id="whatsapp" xmlns="http://www.w3.org/2000/svg"><g opacity=".5"><path clip-rule="evenodd" d="M9 16.875a7.875 7.875 0 10-6.852-3.991l-1.023 3.991 4.115-.954a7.84 7.84 0 003.76.954zm0-1.211a6.664 6.664 0 10-5.46-2.845l-.598 2.239 2.278-.57A6.633 6.633 0 009 15.664z"/><path d="M7.031 5.344C6.844 4.968 6.557 5 6.267 5c-.519 0-1.328.621-1.328 1.777 0 .948.418 1.985 1.825 3.536 1.357 1.497 3.141 2.272 4.622 2.246 1.481-.027 1.786-1.301 1.786-1.732 0-.19-.119-.285-.2-.311-.505-.243-1.435-.694-1.647-.779-.212-.084-.323.03-.391.093-.192.183-.573.722-.704.843-.13.122-.324.06-.405.014-.298-.119-1.105-.478-1.748-1.101-.795-.772-.842-1.037-.992-1.273-.12-.189-.032-.305.012-.355.172-.198.408-.504.514-.655.106-.152.022-.382-.028-.526-.218-.617-.402-1.133-.552-1.434z"/></g></svg></svg>